<svg id="Layer_1" data-name="Layer 1" xmlns="http://www.w3.org/2000/svg" viewBox="0 0 160.94 161.02"><path d="M14.71,95.93q0-24.83,0-49.64c0-14.18,8.75-25.95,21.9-29.66a32.41,32.41,0,0,1,8.87-1.07c33.1,0,66.19.18,99.28-.07,16.92-.13,28.63,13,30.36,24.77a40.5,40.5,0,0,1,.49,6q0,49.73,0,99.46c0,15.22-10.17,27.57-24.85,30.27a48.83,48.83,0,0,1-9.13.48c-4.82,0-9.65-.05-14.47,0-1.14,0-1.43-.32-1.43-1.44q.06-29.76,0-59.53c0-1.11.26-1.44,1.41-1.43,5.92.06,11.85,0,17.77.06,1.29,0,1.74-.28,1.9-1.66.83-7.09,1.78-14.16,2.77-21.23.17-1.26-.17-1.53-1.38-1.52-7,0-13.92,0-20.88.06-1.3,0-1.62-.35-1.59-1.62.08-4.58,0-9.16,0-13.74.06-8.77,3.07-11.79,11.79-11.87,3.85,0,7.69-.09,11.54-.05,1.1,0,1.47-.28,1.46-1.43-.05-6.35,0-12.7,0-19,0-.67.11-1.34-.92-1.42-8.46-.68-16.93-1.54-25.37-.06-13.09,2.31-22.1,12.29-23.32,25.57-.67,7.31-.23,14.64-.3,22,0,1.36-.31,1.73-1.69,1.71-5.93-.08-11.85,0-17.77-.06-1.19,0-1.55.29-1.54,1.52.06,7.08.08,14.16,0,21.24,0,1.49.53,1.66,1.79,1.65,5.86-.06,11.73,0,17.59-.06,1.25,0,1.62.28,1.62,1.58q-.06,29.59,0,59.17c0,1.22-.24,1.66-1.58,1.65-18,0-36,0-54,0-17.14-.09-30.19-13.17-30.27-30.34C14.65,129.39,14.71,112.66,14.71,95.93Z" transform="translate(-14.69 -15.49)" fill="#3c3c3b"/></svg>