<svg id="Layer_1" data-name="Layer 1" xmlns="http://www.w3.org/2000/svg" viewBox="0 0 154.63 154.5"><path d="M52.79,14.57h82.79c.66.77,1.63.37,2.43.62l.43.06,4.16,1.1a.33.33,0,0,0,.41.15h.05l3.13,1.14,1.06.46,2.24,1.1,3.41,2.11c1.14.85,2.28,1.7,3.43,2.54l.24.19,2.83,2.67,1,1.1L163,31l.06.1a56.08,56.08,0,0,1,4.1,6.93c.44,1.11.88,2.22,1.33,3.33.58,2.11,1.23,4.2,1.62,6.36.15,1.11.29,2.21.44,3.32l0,.44a.88.88,0,0,0,.12.69c0,.73,0,1.45.05,2.17v76.16a21.47,21.47,0,0,0-.25,3.3l-.6,3.32a58,58,0,0,1-1.84,6.37L166.47,147a1.73,1.73,0,0,0-.44.86l-1.3,2.24a63.8,63.8,0,0,1-5.22,6.71,61.18,61.18,0,0,1-6.48,5.44,6.13,6.13,0,0,0-1.57,1,9.47,9.47,0,0,0-2,1.13c-2.25,1.07-4.55,2-6.88,2.87l-2.82.73a70.07,70.07,0,0,1-7.07,1.06H52.79L47,168a14.26,14.26,0,0,0-3.29-.74c-.1-.11-.17-.27-.28-.31a48,48,0,0,1-6.1-2.56l-1.56-.87L34,162.33l-.07-.05-.3-.19-.2-.09-.47-.35c-1.9-1.51-3.76-3.06-5.51-4.74l-.21-.21a77.54,77.54,0,0,1-4.84-6.16,19.65,19.65,0,0,0-1.79-2.95.56.56,0,0,0-.22-.6l-1.44-3.29a66.93,66.93,0,0,1-2.11-7.08l-.47-3.3-.23-2.88V54.3L16.29,51l.3-2.83.83-3.79.06-.65,1-2.67,1.21-3a61,61,0,0,1,4-6.85l.17-.24,2.48-3.07a4.47,4.47,0,0,0,1-1.12l2.38-2.24.72-.62,3.1-2.39c.16,0,.35-.06.43-.26l3.34-2,2.38-1.15a1.88,1.88,0,0,0,.89-.42l3.09-1.13a55,55,0,0,1,7.53-1.67C51.76,14.78,52.35,15,52.79,14.57ZM35.13,38.21l-.29.4a21.15,21.15,0,0,0-3.39,5.76,20.65,20.65,0,0,0-1.65,5.91.18.18,0,0,0-.11.26l0,.44-.07.88a3.93,3.93,0,0,0-.18,1.63q0,16.7,0,33.4,0,21.23,0,42.45A22.86,22.86,0,0,0,30.3,136a2,2,0,0,0,.38,1.12A10.34,10.34,0,0,0,32,140.41a10,10,0,0,0,1.56,2.85l.28.42a24.37,24.37,0,0,0,9.91,9.08,20.63,20.63,0,0,0,6.39,2.42,12.72,12.72,0,0,0,3.57.6l1.06.06a4.06,4.06,0,0,0,1.73.16c3.23,0,6.47,0,9.7,0l29.76,0h31.4a37.81,37.81,0,0,0,5.83-.22l.66,0a.69.69,0,0,0,.69-.12l2-.3a23.33,23.33,0,0,0,6.84-2.59A25.82,25.82,0,0,0,155,140.38a3.88,3.88,0,0,0,.7-1.72,20.93,20.93,0,0,0,1.77-8,1.46,1.46,0,0,0,.11-.41q0-9.79,0-19.61c0-5.51,0-11,0-16.53s0-11,0-16.53,0-11.17,0-16.75c0-2.56.1-5.12-.14-7.68a5.55,5.55,0,0,0-.23-2.18,18.91,18.91,0,0,0-1.8-6.62,22.26,22.26,0,0,0-4.17-6.84A5.69,5.69,0,0,0,149.92,36a7.68,7.68,0,0,0-2-1.8,3.7,3.7,0,0,0-1.34-1.08A14.84,14.84,0,0,0,143.22,31,11.67,11.67,0,0,0,140,29.55a12.42,12.42,0,0,0-3.58-1.06,8.81,8.81,0,0,0-2.83-.48,14.18,14.18,0,0,0-3.79-.16H54.55a18.89,18.89,0,0,0-4.89.82,11.1,11.1,0,0,0-2.6.76,13.83,13.83,0,0,0-3.12,1.45.49.49,0,0,0-.43.22.92.92,0,0,0-.68.39c-.17.05-.36.07-.44.27h0a1.24,1.24,0,0,0-.7.44l0,0a1.17,1.17,0,0,0-.69.46l0,0-.41.27-.25.19a6.78,6.78,0,0,0-1.95,1.58l0,0-.22.19A3.68,3.68,0,0,0,37.05,36a6.5,6.5,0,0,0-1.53,1.73l0,0-.39.49Z" transform="translate(-16.1 -14.57)" fill="#3c3c3b"/><path d="M143.4,54.29l-.51.68A9.71,9.71,0,0,1,136.46,58a9.93,9.93,0,0,1-6.41-2.39l-1.32-1.56a14.88,14.88,0,0,1-1.34-3.28l0-.26,0-2.42,0-.44a15.6,15.6,0,0,1,1.12-3.11l0-.06.07,0v-.08l1.49-1.81,1.78-1.31,1.32-.54a14.23,14.23,0,0,1,3.31-.55l3.06.67.92.43a15,15,0,0,1,2.65,2.2l.38.46.27.46h0a13.47,13.47,0,0,1,1.34,4v1.54A11.49,11.49,0,0,1,143.4,54.29Z" transform="translate(-16.1 -14.57)" fill="#3c3c3b"/><path d="M96.73,130.25h-.45a.22.22,0,0,0-.21,0l-4.65,0h-.66a1.76,1.76,0,0,0-1.11,0h-.06a8.07,8.07,0,0,0-2.8-.51l-3.31-.72-2.82-.88a64.57,64.57,0,0,1-7.09-3.35c-1-.66-1.93-1.31-2.88-2a41.73,41.73,0,0,1-8.82-9l-1.31-2-.76-1.3-1.34-2.68-.15-.23h0a11.37,11.37,0,0,0-1.34-3.1l-.05-.42L56,100.66l-.79-4A9.15,9.15,0,0,0,55,94v-.45a.22.22,0,0,0,0-.21V90.71a21.45,21.45,0,0,0,.23-3.3c.2-1.11.41-2.22.61-3.33L56.54,81c.79-2.31,1.71-4.58,2.71-6.81a58.65,58.65,0,0,1,4.39-6.64l.21-.22,2.63-2.87a1.66,1.66,0,0,0,.68-.66,49,49,0,0,1,6.11-4.63.51.51,0,0,0,.29-.42c.79,0,1.33-.57,2-.93l1.33-.66,3.59-1.51A60.18,60.18,0,0,1,86.78,54l3.33-.44.43,0a.9.9,0,0,0,.7-.12l2.17,0h2l1.33.16,3,.31c2.31.58,4.65,1.06,6.9,1.86l3,1.23,1.35.67,2.21,1.23,3.2,2.2,3.41,2.78.41.41,2.9,3.12a.13.13,0,0,0,.09.15,55.55,55.55,0,0,1,4.55,6.9,63.75,63.75,0,0,1,2.51,6.34l.86,3.33c.16,1.1.32,2.2.49,3.29l.18,1.56,0,.65V94c0,.15,0,.3,0,.44-.08,1-.17,1.94-.26,2.91l-.64,3.3-.92,3.32a61.51,61.51,0,0,1-2.89,6.61v0l-.26.46,0,0a.53.53,0,0,0-.22.59c-.19-.08-.26.08-.33.19A40.3,40.3,0,0,1,117,122.34l-.19.16-.24.19L115,123.81l-.21.17-.44.28h0a1.26,1.26,0,0,0-.7.43h0a52.14,52.14,0,0,1-7,3.37l-3.31,1.07C101.15,129.54,99,130,96.73,130.25ZM106,68.37l0,0c-.1-.19-.29-.2-.47-.24a3.27,3.27,0,0,0-1.32-.65,1.58,1.58,0,0,0-.9-.38,5.25,5.25,0,0,0-2-.69,17.35,17.35,0,0,0-5.52-1.08h-.23a15,15,0,0,0-5.74.19,9.77,9.77,0,0,0-3.55.67,20.08,20.08,0,0,0-6.18,2.61,12,12,0,0,0-2.65,1.76l-.64.5a15.87,15.87,0,0,0-3.29,3.1,15.28,15.28,0,0,0-2.48,3.29A20.15,20.15,0,0,0,68,84.08a6.84,6.84,0,0,0-.65,2.65,18.49,18.49,0,0,0-.54,5.74,1.21,1.21,0,0,0,.06,1,.27.27,0,0,0,0,.39.14.14,0,0,0,0,.2,9.45,9.45,0,0,0,.46,3.3,12.4,12.4,0,0,0,1.07,3.78A20,20,0,0,0,72,107.56a5.45,5.45,0,0,0,1.34,1.72,4.6,4.6,0,0,0,1.16,1.29,9.93,9.93,0,0,0,2.17,2,23,23,0,0,0,6.63,4,20,20,0,0,0,6.82,1.79,10.31,10.31,0,0,0,3.32.2,11.57,11.57,0,0,0,3.57-.2,21.58,21.58,0,0,0,6.36-1.62,14.07,14.07,0,0,0,3.34-1.66,6.37,6.37,0,0,0,1.82-1.13l.38-.29c.14,0,.19-.06.23-.16l.22-.17.67-.49h0a12.09,12.09,0,0,0,2.53-2.26,2.17,2.17,0,0,0,.78-.84,10,10,0,0,0,1.94-2.44.25.25,0,0,0,0-.19l.24-.24h0a1.16,1.16,0,0,0,.46-.68v0l.34-.46.09-.21c.18-.15.32-.31.24-.57a13.39,13.39,0,0,0,2.1-4.31,10.68,10.68,0,0,0,.76-2.83,12.2,12.2,0,0,0,.59-3.79,17.33,17.33,0,0,0,.05-3.3,12,12,0,0,0-.42-3.78A9,9,0,0,0,119,84.1,12.63,12.63,0,0,0,117.84,81l-.14-.22h0a4.44,4.44,0,0,0-1.11-2c0-.16.05-.35-.16-.43l-.28-.44-.25-.43a15.32,15.32,0,0,0-2.59-3.35,14.81,14.81,0,0,0-3.54-3.3,12.35,12.35,0,0,0-3.33-2.2h0C106.38,68.43,106.19,68.41,106,68.37Z" transform="translate(-16.1 -14.57)" fill="#3c3c3b"/></svg>