<svg id="Layer_1" data-name="Layer 1" xmlns="http://www.w3.org/2000/svg" viewBox="0 0 174.27 173.52"><path d="M13.9,166.94V25.06a7.32,7.32,0,0,0,.35-.88A17.8,17.8,0,0,1,20,14.75a22,22,0,0,1,8.2-4H170.1a7.4,7.4,0,0,0,.89.34c7.63,1.78,13.42,8.65,13.42,16.15q0,68.75,0,137.5c0,8.72-7.79,16.51-16.52,16.51q-68.74,0-137.49,0c-4.87,0-8.84-2.17-12.13-5.7A20.74,20.74,0,0,1,13.9,166.94Zm144.9-11.41V153.6c0-15.2,0-30.41,0-45.62a29.46,29.46,0,0,0-8.54-21.5c-9.51-9.7-24.71-13.29-37.48-2.83-1.84,1.5-3.65,3-5.14,4.28V79.11H82.28v76.42h25.33v-2.07q0-19.82,0-39.62c0-1.55.08-3.1.21-4.65a12.9,12.9,0,0,1,9-10.87A12.53,12.53,0,0,1,130,102.06a14.19,14.19,0,0,1,3.4,9.8q0,20.81,0,41.62v2.05Zm-93.94,0V79.09H39.67v76.48ZM52.28,64.38A15.23,15.23,0,0,0,67.53,49,15,15,0,0,0,52.25,33.85,14.9,14.9,0,0,0,37,49C37,57.78,43.68,64.24,52.28,64.38Z" transform="translate(-10.16 -7.74)" fill="#3c3c3b"/><path d="M24.48,7.74c-2.94.92-5.81,1.94-8.2,4a17.7,17.7,0,0,0-5.78,9.42,5.52,5.52,0,0,1-.34.88V7.74Z" transform="translate(-10.16 -7.74)" fill="#fff"/></svg>