<svg xmlns="http://www.w3.org/2000/svg" xmlns:xlink="http://www.w3.org/1999/xlink" viewBox="0 0 184.24 204.77"><defs><radialGradient id="New_Gradient_Swatch_1" cx="61.91" cy="99.06" r="13.55" gradientUnits="userSpaceOnUse"><stop offset="0.21" stop-color="#df8c9c"/><stop offset="0.3" stop-color="#e0929f"/><stop offset="0.43" stop-color="#e2a4a9"/><stop offset="0.58" stop-color="#e6c1b9"/><stop offset="0.64" stop-color="#e8d0c1"/><stop offset="0.8" stop-color="#e8d0c1"/><stop offset="0.97" stop-color="#e8d0c1"/></radialGradient><radialGradient id="New_Gradient_Swatch_1-2" cx="124.77" cy="99.6" r="14.17" xlink:href="#New_Gradient_Swatch_1"/><radialGradient id="radial-gradient" cx="280.24" cy="125.21" r="7.62" gradientTransform="translate(-137.29 -20.32) scale(0.82 0.94)" gradientUnits="userSpaceOnUse"><stop offset="0.05" stop-color="#e4b3b2"/><stop offset="1" stop-color="#e8d0c1"/></radialGradient></defs><g style="isolation:isolate"><g id="Layer_1" data-name="Layer 1"><g id="index_face"><path id="Bakgrundscirkel" d="M196.41,115.8a91,91,0,0,1-14.51,49.43c-.52.81-1.05,1.61-1.6,2.39-.77,1.14-1.59,2.27-2.43,3.37-.63.83-1.27,1.65-1.93,2.46l-.69.83c-.65.79-1.32,1.56-2,2.32l-.78.85c-.34.38-.69.75-1,1.12l-.88.92-1,1-1,1-1,1c-.71.67-1.44,1.33-2.17,2-.32.29-.64.56-1,.83s-.72.62-1.08.91-.69.57-1,.85l-.12.1c-.34.27-.68.55-1,.81l-1.11.86-1.13.84c-1.27.92-2.56,1.83-3.88,2.68-.46.31-.93.61-1.4.9l-1.2.75-.08.05-1.37.82-.32.18c-.23.13-.45.27-.69.39l-1.11.62c-.67.37-1.34.72-2,1.08l-1,.5c-.4.21-.81.41-1.23.61s-.92.45-1.39.66l-.1,0-.91.42c-1.16.51-2.34,1-3.53,1.49l-.33.12c-.6.24-1.21.47-1.81.69l-1.51.54-.58.2-.61.2h0c-.55.19-1.1.36-1.66.53s-1.09.34-1.64.49c-.27.09-.53.17-.81.24h0c-.6.18-1.19.33-1.8.49-1,.26-2,.5-3,.72h0l-.22.05-1.16.24a.57.57,0,0,1-.15,0c-.58.13-1.17.24-1.77.34l-.86.16-1.33.22-1,.15c-.58.09-1.16.17-1.75.24s-1.45.18-2.18.25l-.17,0-1.8.16h-.07l-.26,0,0,0c-1.69.12-3.39.2-5.11.22h0l-.91,0h-.94c-.75,0-1.5,0-2.24,0h-.49l-2-.07-.75,0L98.53,207l-1-.07h-.07l-1.8-.16-.17,0c-.73-.07-1.46-.16-2.18-.25s-1.17-.15-1.75-.24l-1-.15-1.33-.22-.86-.16c-.6-.1-1.19-.21-1.77-.34a.57.57,0,0,1-.15,0c-.59-.12-1.18-.24-1.76-.38-.9-.2-1.78-.41-2.66-.64-.61-.16-1.2-.31-1.8-.49h0l-.7-.2h0a.23.23,0,0,1-.11,0c-.55-.15-1.1-.31-1.64-.49s-1.11-.34-1.66-.53h0l-1.19-.4-1.51-.54c-.6-.22-1.21-.45-1.81-.69l-.33-.12a.7.7,0,0,0-.2-.08h0c-1.12-.44-2.23-.91-3.33-1.4l-.91-.42-.1,0c-.47-.21-.93-.43-1.39-.66s-.83-.4-1.23-.61l-1-.5-2-1.08L60,195.38c-.24-.12-.46-.26-.69-.39l-.32-.18L57.63,194l-.08-.05-1.2-.75c-.47-.29-.94-.59-1.4-.9-1.32-.85-2.61-1.76-3.88-2.68l-1.13-.84-1.11-.86c-.35-.26-.69-.54-1-.81l-.12-.1c-.34-.28-.7-.56-1-.85s-.73-.6-1.08-.91-.64-.54-1-.83c-.73-.64-1.46-1.3-2.17-2l-1-1-1-1-1-1-.88-.92c-.35-.37-.7-.74-1-1.12l-.78-.85c-.67-.76-1.34-1.53-2-2.32l-.69-.83c-.66-.81-1.3-1.63-1.93-2.46-.84-1.1-1.66-2.23-2.43-3.37-.55-.78-1.08-1.58-1.6-2.39A90.41,90.41,0,0,1,19.83,149l-.36-.92c-.18-.5-.37-1-.55-1.51A91.42,91.42,0,1,1,196.41,115.8Z" transform="translate(-12.88 -3.35)" fill="#bfc9d0" stroke="#818080" stroke-miterlimit="10" stroke-width="1.42"/><g id="Knut_left" data-name="Knut left"><path d="M112.85,29.49c0,8.23-6.46,8.23-14.91,8.23s-17.82-7.06-15.3-14.9C89.31,2,90.18,7.19,97.94,7.91,106.35,8.69,112.85,21.25,112.85,29.49Z" transform="translate(-12.88 -3.35)" fill="#c69c6d" stroke="#a67c52" stroke-miterlimit="10" stroke-width="0.38"/><path d="M94.68,7.34a9.77,9.77,0,0,1-7.41,3.22" transform="translate(-12.88 -3.35)" fill="none" stroke="#a67c52" stroke-miterlimit="10" stroke-width="0.2"/><path d="M86.72,11.67s5,1.05,10.08-3.9" transform="translate(-12.88 -3.35)" fill="none" stroke="#a67c52" stroke-miterlimit="10" stroke-width="0.2"/><path d="M98.47,8S95.93,13.08,86,13.44" transform="translate(-12.88 -3.35)" fill="none" stroke="#a67c52" stroke-miterlimit="10" stroke-width="0.2"/><path d="M101.39,8.91s-7.84,8.81-16.63,7.63" transform="translate(-12.88 -3.35)" fill="none" stroke="#a67c52" stroke-miterlimit="10" stroke-width="0.2"/><path d="M85.42,30.61s-3.63-8,1.3-14" transform="translate(-12.88 -3.35)" fill="none" stroke="#a67c52" stroke-miterlimit="10" stroke-width="0.2"/><path d="M88.38,16.5s-5.1,5.82-.91,14.11" transform="translate(-12.88 -3.35)" fill="none" stroke="#a67c52" stroke-miterlimit="10" stroke-width="0.2"/><path d="M89.86,16.24s-5,9.44,0,14.48" transform="translate(-12.88 -3.35)" fill="none" stroke="#a67c52" stroke-miterlimit="10" stroke-width="0.2"/><path d="M91.51,15.69s-3.73,10.56.56,14.92" transform="translate(-12.88 -3.35)" fill="none" stroke="#a67c52" stroke-miterlimit="10" stroke-width="0.2"/><path d="M100.3,10s3,1.31,2.69,3.33" transform="translate(-12.88 -3.35)" fill="none" stroke="#a67c52" stroke-miterlimit="10" stroke-width="0.2"/><path d="M99,11.2s2.16,1.33,1.74,3.53" transform="translate(-12.88 -3.35)" fill="none" stroke="#a67c52" stroke-miterlimit="10" stroke-width="0.2"/><path d="M97.35,12.48a3.61,3.61,0,0,1,1.8,3.62" transform="translate(-12.88 -3.35)" fill="none" stroke="#a67c52" stroke-miterlimit="10" stroke-width="0.2"/><path d="M95.79,13.63S98.7,16.72,97.53,18" transform="translate(-12.88 -3.35)" fill="none" stroke="#a67c52" stroke-miterlimit="10" stroke-width="0.2"/><path d="M93.5,14.84s4.09,3.87,3.09,5.33" transform="translate(-12.88 -3.35)" fill="none" stroke="#a67c52" stroke-miterlimit="10" stroke-width="0.2"/><path d="M91.24,16.54s5.31,2.22,5.22,5.23" transform="translate(-12.88 -3.35)" fill="none" stroke="#a67c52" stroke-miterlimit="10" stroke-width="0.2"/><line x1="77.86" y1="15.06" x2="80.19" y2="14.15" fill="none" stroke="#a67c52" stroke-miterlimit="10" stroke-width="0.2"/><path d="M90.5,19.55s3-1.58,3.67-1.31" transform="translate(-12.88 -3.35)" fill="none" stroke="#a67c52" stroke-miterlimit="10" stroke-width="0.2"/><path d="M90.27,20.9s3.24-2.43,4.67-2" transform="translate(-12.88 -3.35)" fill="none" stroke="#a67c52" stroke-miterlimit="10" stroke-width="0.2"/><path d="M90.1,22.27s5-2.86,5.62-2.53" transform="translate(-12.88 -3.35)" fill="none" stroke="#a67c52" stroke-miterlimit="10" stroke-width="0.2"/><path d="M90,24.31S94.8,20.4,96.37,21" transform="translate(-12.88 -3.35)" fill="none" stroke="#a67c52" stroke-miterlimit="10" stroke-width="0.2"/><path d="M90.1,25.89s3.13-3.7,6.27-2.41" transform="translate(-12.88 -3.35)" fill="none" stroke="#a67c52" stroke-miterlimit="10" stroke-width="0.2"/><path d="M90.35,27.33s4.45-3.37,6-2.57" transform="translate(-12.88 -3.35)" fill="none" stroke="#a67c52" stroke-miterlimit="10" stroke-width="0.2"/><path d="M90.88,28.85s4.68-3.06,5.87-2.39" transform="translate(-12.88 -3.35)" fill="none" stroke="#a67c52" stroke-miterlimit="10" stroke-width="0.2"/><path d="M92.07,30.51s4.6-2.08,5.63-1.94" transform="translate(-12.88 -3.35)" fill="none" stroke="#a67c52" stroke-miterlimit="10" stroke-width="0.2"/><path d="M85.3,15.09s9.79-.4,14.75-6.73" transform="translate(-12.88 -3.35)" fill="none" stroke="#a67c52" stroke-miterlimit="10" stroke-width="0.2"/><path d="M88.24,9A8.92,8.92,0,0,0,93.36,7" transform="translate(-12.88 -3.35)" fill="none" stroke="#a67c52" stroke-miterlimit="10" stroke-width="0.2"/></g><path id="Bakhår" d="M66.65,76.46s-6.09-7.76-4.86-13.83,2.8-6.07,2.8-8.43,1.49-6.58,1.53-7.21,2.2-9.6,5-10.61,11-5.69,13.59-5.7S94.81,31,96.57,30s5.47-2.74,8.72-2.24,6,2.64,9.33,2.75,8.37-.11,9.38,0,4.32,3,6.19,3.52,8.16-1,10.51,2.09,4.71,8.63,5.49,10.2,4.71,3.92,3.93,7.06-1.46,4.44-1.52,7.71.73,10.33.73,11.12-1.39,7.12-3.05,9S66.65,76.46,66.65,76.46Z" transform="translate(-12.88 -3.35)" fill="#bc8f62" stroke="#a67c52" stroke-miterlimit="10" stroke-width="0.39"/><g id="hals"><path d="M103.52,160.47l-2.22-1.95,0-.09c0-.09-4.2-8.88-7.5-11.56l-.38-.3.32-.36c.07-.07.26-.29,4.51-2.44,4.35-5.6,4.61-18.3,4.62-20.8v-.59l.58.15a11.63,11.63,0,0,0,3,.4,10.4,10.4,0,0,0,1.84-.16l.32-.06.31.58v.13c-.88,12.71,4.08,21.27,5.09,22.85l.25.41-.42.24c-3.51,1.94-5.32,10.63-5.34,10.71l0,.09-1.88,2.75Z" transform="translate(-12.88 -3.35)" fill="#e8d0c1"/><path d="M103.29,123a12,12,0,0,0,3.07.41,11.57,11.57,0,0,0,1.92-.16l.09.17a39.89,39.89,0,0,0,5.15,23.13c-3.73,2.06-5.57,11-5.57,11L106.26,160h-2.57l-2-1.77s-4.2-9-7.63-11.72c.21-.23,4.47-2.39,4.47-2.39,4.45-5.62,4.77-18.2,4.78-21.16m-.91-1.19V123c0,2.46-.27,14.92-4.46,20.44-4.24,2.15-4.43,2.36-4.56,2.5l-.63.72.74.6c3.23,2.6,7.34,11.31,7.38,11.4l.08.17.14.12,2,1.78.26.23h3.39l.27-.4,1.69-2.47.11-.15,0-.18c.49-2.38,2.37-8.89,5.12-10.42l.85-.46-.52-.82c-1-1.56-5.89-10-5-22.58v-.26l-.12-.23-.09-.17-.31-.59-.65.12a10.37,10.37,0,0,1-1.76.15,11.21,11.21,0,0,1-2.84-.38l-1.14-.31Z" transform="translate(-12.88 -3.35)" fill="#b69e8d"/><g opacity="0.05" style="mix-blend-mode:multiply"><path d="M113.52,146.52a39.89,39.89,0,0,1-5.15-23.13l-.09-.17c-.34.06-.67.08-1,.11-1.39,8.22,2.52,20.13,4.17,27.59C113.15,151.58,114.25,150,113.52,146.52Z" transform="translate(-12.88 -3.35)" fill="#1d1d1b"/></g><g opacity="0.05" style="mix-blend-mode:multiply"><path d="M103.9,123.1l-.61-.13c0,3-1.46,16.12-5.91,21.74a15.31,15.31,0,0,0-2.45.87c1.62,1.31,2.12,4.74,3.24,7.11C101.13,143.87,104.69,132.55,103.9,123.1Z" transform="translate(-12.88 -3.35)" fill="#1d1d1b"/></g></g><path d="M110.49,124.86,110,125c-1.27.38-2.47,1.4-3.79,1.37-1.13,0-2.33-1-3.4-1.31l-.74-.22C90.61,125,78.26,124,68,118.51c-5.35-2.84-10-7.11-12.37-12.79-4.47-10.8,2.29-22.08,9.15-30.22,1.07-1.24,3.86-23.29,3.86-23.29.68-5.34,4-10.14,8.28-13.29,5.14-3.81,11-5.13,17.24-5.93a98.7,98.7,0,0,1,22.53-.24c6.83.72,13.65,1.91,19.25,6.17a23.49,23.49,0,0,1,2.63,2.34,20.51,20.51,0,0,1,5.37,11s2.78,22.05,3.85,23.29C154.9,83.67,161.53,95,156.84,106c-2.42,5.68-7.18,9.92-12.58,12.72C134,124,121.82,125,110.49,124.86Z" transform="translate(-12.88 -3.35)" fill="#e8d0c1" stroke="#b69e8d" stroke-miterlimit="10" stroke-width="0.91"/><ellipse cx="61.91" cy="99.06" rx="15.3" ry="11.54" fill="url(#New_Gradient_Swatch_1)"/><ellipse cx="124.77" cy="99.6" rx="16" ry="12.06" fill="url(#New_Gradient_Swatch_1-2)"/><path id="mun" d="M106.41,115.68l-.15,1.58-.15-1.58a4.49,4.49,0,0,0-6.41,0s2.24,4.08,6.56,3.49c4.31.59,6.55-3.49,6.55-3.49A4.47,4.47,0,0,0,106.41,115.68Z" transform="translate(-12.88 -3.35)" fill="#ca97a5" stroke="#bc8ea1" stroke-linecap="round" stroke-linejoin="round" stroke-width="0.91"/><g id="Glasögonbåge"><path d="M65,75.92l-.34,1.71a6,6,0,0,1-.61.81s-.45.37-.48.4c-.26,0,.25,0,0,0a23.77,23.77,0,0,0-10.61,3.87,1.37,1.37,0,1,1-1.63-2.19A27,27,0,0,1,63.52,76.1,13,13,0,0,1,65,75.92Z" transform="translate(-12.88 -3.35)" fill="#1a1a1a"/></g><g id="Glasögonbåge-2" data-name="Glasögonbåge"><path d="M161.37,82.41a1.19,1.19,0,0,1-1.78.31A18.43,18.43,0,0,0,151.28,79a16.27,16.27,0,0,0-2.65-.23l-.37-.5a7.92,7.92,0,0,1-.77-2.32,22,22,0,0,1,3,.19,20.43,20.43,0,0,1,10.61,4.41A1.41,1.41,0,0,1,161.37,82.41Z" transform="translate(-12.88 -3.35)" fill="#333"/></g><path d="M64.09,73.14a4.1,4.1,0,0,1-.47,3.31,23.12,23.12,0,0,1-3.37,3.89c-1.14.92-2.41,1.84-2.41,1.84a.71.71,0,0,1-1-.22c-.48-.61.27,1.89.27,1.89s.7,2.36,1.62,1.75A14.64,14.64,0,0,0,62,82.36c.65-1,3-5.3,3-5.3l1.56-5Z" transform="translate(-12.88 -3.35)" fill="#bc8f62" stroke="#a67c52" stroke-miterlimit="10" stroke-width="0.39"/><path d="M57.35,83.3s3.11-1.22,3.44-1.79,2.85-3.74,3.35-4.8a35.12,35.12,0,0,0,1.19-4.65" transform="translate(-12.88 -3.35)" fill="none" stroke="#c69c6d" stroke-linecap="round" stroke-linejoin="bevel" stroke-width="0.39"/><g id="glasögon"><ellipse cx="124.19" cy="83.03" rx="21.13" ry="16.87" fill="#b69e8d" opacity="0.5"/><path d="M137.12,104c-12.41,0-22.5-6.17-22.5-18.57s10.09-17,22.5-17,22.49,4.6,22.49,17S149.52,104,137.12,104Zm0-32.84c-10.9,0-19.76,3.37-19.76,14.27s8.86,15.84,19.76,15.84,19.76-4.94,19.76-15.84S148,71.15,137.12,71.15Z" transform="translate(-12.88 -3.35)" fill="#333"/><ellipse cx="62.3" cy="83.03" rx="21.13" ry="16.87" fill="#b69e8d" opacity="0.5"/><path d="M52.64,85.42c0-12.4,10.09-17,22.49-17s22.49,4.6,22.49,17S87.53,104,75.13,104,52.64,97.82,52.64,85.42Zm2.73,0c0,10.9,8.86,15.84,19.76,15.84s19.76-4.94,19.76-15.84S86,71.15,75.13,71.15,55.37,74.52,55.37,85.42Z" transform="translate(-12.88 -3.35)" fill="#333"/><path d="M92.8,83.66s13-9.64,26.24,0" transform="translate(-12.88 -3.35)" fill="none" stroke="#333" stroke-linecap="round" stroke-miterlimit="10" stroke-width="2.73"/></g><g id="ögon"><g id="öga_vänster"><circle cx="66.92" cy="88.69" r="4.7" fill="#fff" stroke="#3c3c3b" stroke-miterlimit="10" stroke-width="0.91"/><ellipse cx="68.34" cy="90.31" rx="2.64" ry="2.53" fill="#1d1d1b"/><path d="M67.28,81.76s2.75-2.3,5-2.67c5.57-.93,7.21,2,8-.15S69.61,72.31,67.28,81.76Z" transform="translate(-12.88 -3.35)" fill="#534741"/><path d="M146.62,81.67s-2.79-2.26-5-2.6c-5.57-.84-7.17,2.12-8,0S144.14,72.26,146.62,81.67Z" transform="translate(-12.88 -3.35)" fill="#534741"/></g><g id="öga_höger"><circle cx="121.38" cy="89.32" r="4.7" fill="#fff" stroke="#3c3c3b" stroke-miterlimit="10" stroke-width="0.91"/><ellipse cx="119.96" cy="90.95" rx="2.64" ry="2.53" fill="#1d1d1b"/></g></g><g id="näsa"><path d="M106.26,108.68c-2.93-.19-2.48-1.36-2.48-1.36-3.81,1.28-4.27-2-4.27-2" transform="translate(-12.88 -3.35)" fill="none" stroke="#b69e8d" stroke-linecap="round" stroke-linejoin="round" stroke-width="0.73"/><path d="M113,105.27s-.46,3.33-4.27,2c0,0,.45,1.17-2.47,1.36" transform="translate(-12.88 -3.35)" fill="none" stroke="#b69e8d" stroke-linecap="round" stroke-linejoin="round" stroke-width="0.73"/></g><g id="skjorta"><path d="M105.23,207.66c-.75,0-1.51,0-2.25,0h-.5c-.66,0-1.33,0-2-.07h-.26l-.52,0c-.38,0-.79,0-1.2-.07l-.95-.07h-.06c-.61,0-1.21-.1-1.81-.15l-.11,0c-.8-.08-1.54-.16-2.26-.26s-1.18-.15-1.77-.25c-.31,0-.65-.09-1-.14l-1.33-.23c-.29,0-.59-.09-.88-.16-.58-.1-1.18-.21-1.77-.33l-.2-.05c-.54-.1-1.13-.23-1.71-.36-.9-.21-1.79-.42-2.68-.65-.6-.16-1.2-.31-1.8-.49h0c-.24-.06-.48-.12-.7-.19L79.3,204c-.51-.14-1.07-.31-1.62-.48s-1.11-.35-1.66-.54h0l-1.2-.42L73.29,202l-1.83-.69-.31-.13-.16-.06a.52.52,0,0,1-.34-.44.37.37,0,0,1,0-.11c.75-6,1.75-11.75,1.76-11.81a.5.5,0,0,1,0-.13l6.13-12c2.49-4.31,5.29-10.41,7.76-15.8,1.8-3.93,3.5-7.65,4.88-10.22.33-.63.66-1.2,1-1.7a.47.47,0,0,1,.34-.22h0a.45.45,0,0,1,.33.14l1,1.12,1.17,1.32c.6.69,1.23,1.44,1.88,2.24l.06.09.37.45.32.4a61.15,61.15,0,0,1,4,5.61,29.16,29.16,0,0,1,2.74,5.55h.07c1.18-3.41,3.73-7.52,7.57-12.22l1.44-1.73.43-.48c.61-.71,1.19-1.34,1.7-1.9a.44.44,0,0,1,.33-.14h0a.42.42,0,0,1,.34.2c.93,1.44,1.85,2.91,2.71,4.38l0,.06a141.2,141.2,0,0,1,12.41,27.76.19.19,0,0,1,0,.11c1.17,3.62,1.78,6,1.91,6.55.36.49,1.22,2.26,1.45,14.06a.47.47,0,0,1-.31.45L134,203h0c-.55.19-1.1.37-1.67.54s-1.1.34-1.65.49c-.25.08-.52.16-.8.23h0c-.59.18-1.2.33-1.8.49-1,.26-2,.5-3,.71l-.08,0-1.39.29-.17,0c-.56.12-1.16.23-1.76.34-.27.06-.57.11-.87.16l-1.33.22-1,.15c-.57.09-1.16.17-1.75.24s-1.46.18-2.19.25l-.18,0c-.6.05-1.2.11-1.81.15l-.15,0a.42.42,0,0,1-.15,0c-1.72.13-3.45.21-5.14.23H107l-.83,0h-1Z" transform="translate(-12.88 -3.35)" fill="#4d4d4d"/><path d="M92.58,149.21c.31.33.65.71,1,1.12l.56.63.61.69c.59.68,1.22,1.42,1.87,2.22a.28.28,0,0,0,.07.09c.22.28.44.57.67.85a56.6,56.6,0,0,1,4,5.56,28.81,28.81,0,0,1,2.81,5.77h.71c0-.1.06-.18.1-.28,1.39-4,4.6-8.56,7.5-12.11.5-.61,1-1.18,1.44-1.72.15-.16.29-.33.42-.49.62-.7,1.19-1.33,1.69-1.88.94,1.45,1.84,2.91,2.7,4.36a0,0,0,0,1,0,0,141.4,141.4,0,0,1,12.39,27.7s0,0,0,0c1.34,4.14,1.95,6.68,1.95,6.68.94,1.14,1.29,7.72,1.41,13.87h0l-.61.2h0c-.55.19-1.1.36-1.66.53s-1.09.34-1.64.49c-.27.09-.53.17-.81.24h0c-.6.18-1.19.33-1.8.49-1,.26-2,.5-3,.72h0l-1.38.29a.57.57,0,0,1-.15,0c-.58.13-1.17.24-1.77.34l-.86.16-1.33.22-1,.15c-.58.09-1.16.17-1.75.24s-1.45.18-2.18.25l-.17,0-1.8.16h-.07l-.26,0,0,0c-1.69.12-3.39.2-5.11.22h0l-.91,0h-.94c-.75,0-1.5,0-2.24,0h-.49l-2-.07-.75,0L98.53,207l-1-.07h-.07l-1.8-.16-.17,0c-.73-.07-1.46-.16-2.18-.25s-1.17-.15-1.75-.24l-1-.15-1.33-.22-.86-.16c-.6-.1-1.19-.21-1.77-.34a.57.57,0,0,1-.15,0c-.59-.12-1.18-.24-1.76-.38-.9-.2-1.78-.41-2.66-.64-.61-.16-1.2-.31-1.8-.49h0l-.7-.2h0a.23.23,0,0,1-.11,0c-.55-.15-1.1-.31-1.64-.49s-1.11-.34-1.66-.53h0l-1.19-.4-1.51-.54c-.6-.22-1.21-.45-1.81-.69l-.33-.12a.7.7,0,0,0-.2-.08h0s0-.06,0-.09c.76-6,1.76-11.74,1.76-11.74l6.13-12c4.28-7.39,9.36-19.88,12.63-26,.33-.62.65-1.18,1-1.68m0-.91h-.09a.92.92,0,0,0-.69.43c-.33.54-.65,1.12-1,1.73-1.39,2.58-3.09,6.3-4.89,10.24-2.47,5.38-5.26,11.48-7.73,15.74l-6.15,12a1.14,1.14,0,0,0-.09.26c0,.06-1,5.83-1.76,11.78,0,0,0,0,0,.06s0,.1,0,.15a.92.92,0,0,0,.59.86l0,0,.07,0,.09,0,.14.06.19.07c.59.23,1.2.47,1.81.69l1.53.54,1.19.41h0q.84.29,1.68.54c.57.19,1.11.35,1.62.49l.09,0h0l.71.2h0l1.82.49c.81.21,1.69.42,2.69.65l1.74.38.2,0c.55.12,1.13.23,1.79.34.25.06.56.11.87.16l1.34.22c.32.05.67.11,1,.15.5.08,1.09.16,1.75.24s1.52.19,2.2.26h.13c.62.06,1.21.12,1.8.16l.16,0h0l.88.07,1.24.07.49,0,.24,0,2,.07H103c.64,0,1.39,0,2.24,0h1.86c1.69,0,3.42-.1,5.16-.23a.85.85,0,0,0,.23,0l.14,0c.59,0,1.18-.1,1.75-.15l.13,0h.09c.64-.06,1.36-.14,2.17-.25.65-.08,1.24-.16,1.78-.25.3,0,.65-.09,1-.15s.89-.14,1.34-.22c.29,0,.6-.09.9-.16q.92-.15,1.74-.33l.21,0,1.35-.29.11,0c.94-.21,1.91-.44,3-.71l1.82-.49h0c.28-.07.56-.15.83-.24.49-.13,1-.3,1.64-.49l1.67-.54h0c.21-.06.42-.14.63-.21a.92.92,0,0,0,.61-.86c-.22-11.53-1-13.62-1.48-14.28-.17-.67-.77-3-1.92-6.56h0l0-.08a141.43,141.43,0,0,0-12.43-27.79l0-.08h0c-.86-1.47-1.78-2.95-2.72-4.39a.91.91,0,0,0-.68-.42H116a.91.91,0,0,0-.67.3c-.45.49-1.06,1.16-1.7,1.9l-.42.47c-.48.57-1,1.14-1.46,1.75a47.59,47.59,0,0,0-7.26,11.32,31.92,31.92,0,0,0-2.39-4.6,61.24,61.24,0,0,0-4-5.65l-.34-.42-.34-.43,0,0-.06-.08c-.64-.78-1.27-1.54-1.89-2.24l-.34-.39-.27-.3-.56-.64c-.38-.41-.73-.79-1-1.13a1,1,0,0,0-.67-.29Z" transform="translate(-12.88 -3.35)" fill="#333"/><path id="Arm" d="M92.58,148.3s-19.76,40-20.66,41.27c-.38.54-2.78,4.58-5.44,9a90.32,90.32,0,0,1-12.67-7.2C64.54,165.91,92.58,148.3,92.58,148.3Z" transform="translate(-12.88 -3.35)" fill="#4d4d4d" stroke="#333" stroke-linecap="round" stroke-linejoin="round" stroke-width="0.91"/><path id="Arm-2" data-name="Arm" d="M149.75,195.79a89.08,89.08,0,0,1-11.37,5.3c-1.4-4.36-3-10.74-4.29-13.05-.47-.84-1.55-3.14-3-6.22,0,0,0,0,0,0s0,0,0,0c-3.57-7.74-9.18-20.41-12.39-27.7a0,0,0,0,0,0,0,0,0,0,0,1,0,0c-1.5-3.38-2.47-5.6-2.47-5.6S145.27,165.38,149.75,195.79Z" transform="translate(-12.88 -3.35)" fill="#4d4d4d" stroke="#333" stroke-linecap="round" stroke-linejoin="round" stroke-width="0.91"/><path id="Krage" d="M119.93,148.59l-14.57,18.07-.4-.39c-.27.24-.41.39-.41.39L90,148.59s2.1-5.49,6.37-5.77c0,0,1.53,7.59,6.06,8l2.64,9.79,2.25-9.89c4.53-.41,6.28-7.9,6.28-7.9C117.84,143.1,119.93,148.59,119.93,148.59Z" transform="translate(-12.88 -3.35)" fill="#4d4d4d" stroke="#333" stroke-linecap="round" stroke-linejoin="round" stroke-width="0.91"/><g opacity="0.08" style="mix-blend-mode:multiply"><path d="M86.79,180s-.57,6.79-.66,7.72c-.61,5.68-5.47,9.08-6.56,15.85a.23.23,0,0,1-.11,0c-.55-.15-1.1-.31-1.64-.49s-1.11-.34-1.66-.53h0l-1.19-.4-1.51-.54c-.6-.22-1.21-.45-1.81-.69l-.33-.12a.7.7,0,0,0-.2-.08h0c.76-6,1.77-11.83,1.77-11.83l6.13-12c4.83-8.81,9.44-20.11,12.63-26,.33-.62.65-1.18,1-1.68.31.33.65.71,1,1.12l.56.63.61.69c.59.68,1.21,1.42,1.87,2.22a.28.28,0,0,0,.07.09c.22.28.44.57.67.85C87.89,163.53,85.35,173,86.79,180Z" transform="translate(-12.88 -3.35)" fill="#1d1d1b"/></g><g opacity="0.08" style="mix-blend-mode:multiply"><path d="M124.87,205c.08-9.49-3.28-11-4.37-16.41-.23-1.12-.07-9.06.46-10.88,1.31-4.59-2.81-13.52-8.51-24,.5-.61,1-1.18,1.44-1.72l.42-.49c.62-.7,1.19-1.33,1.69-1.88a138.3,138.3,0,0,1,17.06,38.81c.94,1.14,1.29,7.72,1.41,13.87h0l-.61.2h0c-.55.19-1.1.36-1.66.53s-1.09.34-1.64.49c-.27.09-.53.17-.81.24h0c-.6.18-1.19.33-1.8.49C126.91,204.57,125.89,204.81,124.87,205Z" transform="translate(-12.88 -3.35)" fill="#1d1d1b"/></g><g id="knappar"><path d="M105.22,178.38a1.76,1.76,0,0,1-1.81,1.66,1.58,1.58,0,0,1-1.71-1.42c-.19-.93.76-1.71,1.71-1.71S105.22,177.43,105.22,178.38Z" transform="translate(-12.88 -3.35)" fill="#1d1d1b" opacity="0.5" style="mix-blend-mode:multiply"/><path d="M105.8,186.32c0,.94-.77,1.44-1.71,1.44a1.57,1.57,0,0,1-1.63-1.63,1.49,1.49,0,0,1,1.63-1.52A1.71,1.71,0,0,1,105.8,186.32Z" transform="translate(-12.88 -3.35)" fill="#1d1d1b" opacity="0.5" style="mix-blend-mode:multiply"/><path d="M106,194.57a1.74,1.74,0,0,1-3.42,0,1.67,1.67,0,0,1,1.71-1.71A1.65,1.65,0,0,1,106,194.57Z" transform="translate(-12.88 -3.35)" fill="#1d1d1b" opacity="0.5" style="mix-blend-mode:multiply"/><path d="M105.4,204.26a1.73,1.73,0,0,1-3.42,0,1.71,1.71,0,0,1,3.42,0Z" transform="translate(-12.88 -3.35)" fill="#1d1d1b" opacity="0.5" style="mix-blend-mode:multiply"/><circle cx="90.58" cy="174.73" r="1.58" fill="#a46a53" stroke="#773c3c" stroke-miterlimit="10" stroke-width="0.46"/><rect x="90.02" y="174.4" height="0.6" fill="none" stroke="#773c3c" stroke-linecap="round" stroke-linejoin="round" stroke-width="0.68"/><rect x="91.21" y="174.4" height="0.6" fill="none" stroke="#773c3c" stroke-linecap="round" stroke-linejoin="round" stroke-width="0.68"/><circle cx="91.37" cy="182.44" r="1.58" fill="#a46a53" stroke="#773c3c" stroke-miterlimit="10" stroke-width="0.46"/><rect x="90.81" y="182.11" height="0.6" fill="none" stroke="#773c3c" stroke-linecap="round" stroke-linejoin="round" stroke-width="0.68"/><rect x="92" y="182.11" height="0.6" fill="none" stroke="#773c3c" stroke-linecap="round" stroke-linejoin="round" stroke-width="0.68"/><circle cx="91.37" cy="190.7" r="1.58" fill="#a46a53" stroke="#773c3c" stroke-miterlimit="10" stroke-width="0.46"/><rect x="90.81" y="190.37" height="0.6" fill="none" stroke="#773c3c" stroke-linecap="round" stroke-linejoin="round" stroke-width="0.68"/><rect x="92" y="190.37" height="0.6" fill="none" stroke="#773c3c" stroke-linecap="round" stroke-linejoin="round" stroke-width="0.68"/><circle cx="90.81" cy="200.47" r="1.58" fill="#a46a53" stroke="#773c3c" stroke-miterlimit="10" stroke-width="0.46"/><rect x="90.26" y="200.14" height="0.6" fill="none" stroke="#773c3c" stroke-linecap="round" stroke-linejoin="round" stroke-width="0.68"/><rect x="91.44" y="200.14" height="0.6" fill="none" stroke="#773c3c" stroke-linecap="round" stroke-linejoin="round" stroke-width="0.68"/></g></g><g id="Fräknar"><ellipse cx="93.05" cy="97.06" rx="7.07" ry="6.08" fill="url(#radial-gradient)"/><circle cx="91.13" cy="91.61" r="0.35" fill="#cc9076"/><circle cx="94.49" cy="89.33" r="0.23" fill="#cc9076"/><circle cx="94" cy="91.42" r="0.25" fill="#cc9076"/><circle cx="92.79" cy="93.77" r="0.27" fill="#cc9076"/><circle cx="95.91" cy="95.49" r="0.43" fill="#cc9076"/><circle cx="97.62" cy="93.1" r="0.21" fill="#cc9076"/><circle cx="96.57" cy="88.68" r="0.24" fill="#cc9076"/><circle cx="96.72" cy="91.42" r="0.25" fill="#cc9076"/><circle cx="86.82" cy="96.7" r="0.32" fill="#cc9076"/><circle cx="88.77" cy="95.28" r="0.21" fill="#cc9076"/><circle cx="88.57" cy="91.88" r="0.2" fill="#cc9076"/><circle cx="90.52" cy="87.19" r="0.13" fill="#cc9076"/><circle cx="93.63" cy="86.63" r="0.24" fill="#cc9076"/><circle cx="92.22" cy="88.6" r="0.16" fill="#cc9076"/><circle cx="92.59" cy="98.38" r="0.2" fill="#cc9076"/><circle cx="97.18" cy="98.16" r="0.21" fill="#cc9076"/><circle cx="101.04" cy="96.86" r="0.16" fill="#cc9076"/><circle cx="91.5" cy="95.94" r="0.45" fill="#cc9076"/><circle cx="89.43" cy="99.3" r="0.45" fill="#cc9076"/><circle cx="97.15" cy="100.3" r="0.34" fill="#cc9076"/></g><path d="M65.77,60.09s16.18-23,40.8-20.4L105,31.05S60.49,30.18,65.77,60.09Z" transform="translate(-12.88 -3.35)" fill="#bc8f62"/><path d="M144.65,57.25S131.58,37.52,107,40.08l-2-9S149.93,27.35,144.65,57.25Z" transform="translate(-12.88 -3.35)" fill="#bc8f62"/><path d="M54.07,99.54a14.11,14.11,0,0,1,0-2.72l.07,0A20.19,20.19,0,0,0,54.07,99.54Z" transform="translate(-12.88 -3.35)" fill="#c69c6d"/><path d="M111.32,10.71a7.65,7.65,0,0,0,4.78-2" transform="translate(-12.88 -3.35)" fill="none" stroke="#a67c52" stroke-miterlimit="10" stroke-width="0.2"/><g id="Knut_right" data-name="Knut right"><path d="M110.55,28.23s-2.85,4.17,5.33,2.8,12.66-8.58,10.55-10.12c0,0,4.36-1.67.88,3.94-1.36,2.19-8.72,10.9-15.43,7.36S110.55,28.23,110.55,28.23Z" transform="translate(-12.88 -3.35)" fill="#c69c6d" stroke="#a67c52" stroke-miterlimit="10" stroke-width="0.2"/><path d="M127.11,20.73s2.21,1.69-1.71,5.62" transform="translate(-12.88 -3.35)" fill="none" stroke="#a67c52" stroke-miterlimit="10" stroke-width="0.2"/><path d="M114,8.74s-.79-5-5.8,1.62-3.33,14.92-.74,14.6c0,0-2,4.21-3.34-2.27-.51-2.52-1.13-13.91,6.17-15.93S114,8.74,114,8.74Z" transform="translate(-12.88 -3.35)" fill="#bc8f62" stroke="#a67c52" stroke-miterlimit="10" stroke-width="0.2"/><path d="M103.93,21.75s4.08,3,3-5.24S98.72,3.59,97.12,5.65c0,0-1.54-4.41,4-.75,2.13,1.42,10.61,9,6.87,15.64S103.93,21.75,103.93,21.75Z" transform="translate(-12.88 -3.35)" fill="#bc8f62" stroke="#a67c52" stroke-miterlimit="10" stroke-width="0.2"/><path d="M96.92,4.54s3.16-2.15,9.54,7.47" transform="translate(-12.88 -3.35)" fill="none" stroke="#a67c52" stroke-miterlimit="10" stroke-width="0.2"/><path d="M106.46,10.3s5.46-6.55,8.27-2.71" transform="translate(-12.88 -3.35)" fill="none" stroke="#a67c52" stroke-miterlimit="10" stroke-width="0.2"/><path d="M125.4,25.56c1.53,6.1-10.25,6.28-18.05,6.28s-11-2.35-11-8.63,4.88-10.35,12.55-11.77C116.27,10.08,119.24,1,125.4,25.56Z" transform="translate(-12.88 -3.35)" fill="#c69c6d" stroke="#a67c52" stroke-miterlimit="10" stroke-width="0.38"/><path d="M99.8,15.48S112.7,20.22,121,12.3" transform="translate(-12.88 -3.35)" fill="none" stroke="#a67c52" stroke-miterlimit="10" stroke-width="0.2"/><path d="M101.48,14.2s12.94,4.3,18.43-3.55" transform="translate(-12.88 -3.35)" fill="none" stroke="#a67c52" stroke-miterlimit="10" stroke-width="0.2"/><path d="M103.52,13.09s10.11,3.06,15.6-3.22" transform="translate(-12.88 -3.35)" fill="none" stroke="#a67c52" stroke-miterlimit="10" stroke-width="0.2"/><path d="M106.57,12S113.8,13.44,118,8.91" transform="translate(-12.88 -3.35)" fill="none" stroke="#a67c52" stroke-miterlimit="10" stroke-width="0.2"/><path d="M107.57,16.88A23.74,23.74,0,0,0,121,30.54" transform="translate(-12.88 -3.35)" fill="none" stroke="#a67c52" stroke-miterlimit="10" stroke-width="0.2"/><path d="M109.13,16.87s2.93,7.91,13.13,13.4" transform="translate(-12.88 -3.35)" fill="none" stroke="#a67c52" stroke-miterlimit="10" stroke-width="0.2"/><path d="M110.69,16.78s4.53,8.77,13.15,12.7" transform="translate(-12.88 -3.35)" fill="none" stroke="#a67c52" stroke-miterlimit="10" stroke-width="0.2"/><path d="M112.43,16.54S117.62,26.32,125,28.3" transform="translate(-12.88 -3.35)" fill="none" stroke="#a67c52" stroke-miterlimit="10" stroke-width="0.2"/><path d="M114.29,16.1s4.21,9.57,11.19,11.09" transform="translate(-12.88 -3.35)" fill="none" stroke="#a67c52" stroke-miterlimit="10" stroke-width="0.2"/><path d="M115.82,15.59s2.52,7.62,9.58,10" transform="translate(-12.88 -3.35)" fill="none" stroke="#a67c52" stroke-miterlimit="10" stroke-width="0.2"/><path d="M117.27,14.94s1.92,7.8,7.77,9.21" transform="translate(-12.88 -3.35)" fill="none" stroke="#a67c52" stroke-miterlimit="10" stroke-width="0.2"/><path d="M119.41,13.63s-.45,5.87,1.2,7.72" transform="translate(-12.88 -3.35)" fill="none" stroke="#a67c52" stroke-miterlimit="10" stroke-width="0.2"/><path d="M120.35,12.89s.06,8.45,1.38,9.38" transform="translate(-12.88 -3.35)" fill="none" stroke="#a67c52" stroke-miterlimit="10" stroke-width="0.2"/><path d="M121.52,13.34s0,8.93,1.14,9.79" transform="translate(-12.88 -3.35)" fill="none" stroke="#a67c52" stroke-miterlimit="10" stroke-width="0.2"/><path d="M122.87,16.78s-.26,6.37.74,6.79" transform="translate(-12.88 -3.35)" fill="none" stroke="#a67c52" stroke-miterlimit="10" stroke-width="0.2"/><path d="M123.84,19.55s-.31,4.43.62,4.44" transform="translate(-12.88 -3.35)" fill="none" stroke="#a67c52" stroke-miterlimit="10" stroke-width="0.2"/><path d="M96.37,24.31s8,4.34,15.79.05" transform="translate(-12.88 -3.35)" fill="none" stroke="#a67c52" stroke-miterlimit="10" stroke-width="0.2"/><path d="M96.46,24.91s8.75,4.84,16.1,0" transform="translate(-12.88 -3.35)" fill="none" stroke="#a67c52" stroke-miterlimit="10" stroke-width="0.2"/><path d="M96.59,25.77s9.11,4.5,16.61-.21" transform="translate(-12.88 -3.35)" fill="none" stroke="#a67c52" stroke-miterlimit="10" stroke-width="0.2"/><path d="M96.8,26.64s9.53,4.69,17.1-.55" transform="translate(-12.88 -3.35)" fill="none" stroke="#a67c52" stroke-miterlimit="10" stroke-width="0.2"/><path d="M98.22,29.22s11.77,4.85,17.9-1.36" transform="translate(-12.88 -3.35)" fill="none" stroke="#a67c52" stroke-miterlimit="10" stroke-width="0.2"/><path d="M100.8,30.91s11.81,2.54,16.64-2.19" transform="translate(-12.88 -3.35)" fill="none" stroke="#a67c52" stroke-miterlimit="10" stroke-width="0.2"/><path d="M118,29.07s-2.57,2.27-3.87,2.52" transform="translate(-12.88 -3.35)" fill="none" stroke="#a67c52" stroke-miterlimit="10" stroke-width="0.2"/><path d="M118.9,29.55a12.86,12.86,0,0,1-2.19,1.93" transform="translate(-12.88 -3.35)" fill="none" stroke="#a67c52" stroke-miterlimit="10" stroke-width="0.2"/><path d="M119.89,30s-.43,1.26-1,1.14" transform="translate(-12.88 -3.35)" fill="none" stroke="#a67c52" stroke-miterlimit="10" stroke-width="0.2"/><path d="M108.18,18.41s-2.91,5.64-6.57,7.57" transform="translate(-12.88 -3.35)" fill="none" stroke="#a67c52" stroke-miterlimit="10" stroke-width="0.2"/><path d="M96.46,22.71c1.66-.5,4.78-6.8,4.78-6.8" transform="translate(-12.88 -3.35)" fill="none" stroke="#a67c52" stroke-miterlimit="10" stroke-width="0.2"/><path d="M104.34,16.56a9.15,9.15,0,0,1-5.73,8.67" transform="translate(-12.88 -3.35)" fill="none" stroke="#a67c52" stroke-miterlimit="10" stroke-width="0.2"/><path d="M110,21.65s-1.1,4.07-2.67,4.38" transform="translate(-12.88 -3.35)" fill="none" stroke="#a67c52" stroke-miterlimit="10" stroke-width="0.2"/><path d="M97.28,27.86s10.71,4.23,17.45-1" transform="translate(-12.88 -3.35)" fill="none" stroke="#a67c52" stroke-miterlimit="10" stroke-width="0.2"/></g><g id="Hårslinga_vänster" data-name="Hårslinga vänster"><path d="M100.46,36.7s-7.58-1.12-17,4.27-7.67,16-9.73,18.91S72,70.36,62.79,73.66s-14,15.5-14.73,18.81,2,10.22,2,10.22-10.59-6.12-5.88-17.1S58.44,73.31,61.51,70.82,71,61.08,71.72,57.25s.4-12.17,1-13.1,1.36-8,14.69-9.95" transform="translate(-12.88 -3.35)" fill="#c69c6d" stroke="#a67c52" stroke-miterlimit="10" stroke-width="0.39"/><path d="M88.24,35.68s-6.28-.45-9.67,2.56-5.46,4.4-6.38,13.52" transform="translate(-12.88 -3.35)" fill="none" stroke="#a67c52" stroke-miterlimit="10" stroke-width="0.2"/><path d="M102.65,35.76s-8.19-1.69-11.94.33-9.25,3.6-10,4.38-6.28,6.2-5.89,7.81-.39,7.88-1.18,9.45-3.16,7.5-3.54,8.46-3.52,5.67-6.66,6.45-10.2,4.71-10.2,5.49-4.7,9.42-5.49,11-1.1,8.81,1,12.64" transform="translate(-12.88 -3.35)" fill="none" stroke="#a67c52" stroke-miterlimit="10" stroke-width="0.2"/><path d="M86.17,37.33s-1.57-.78-3.92.79-7.17,4.86-7.12,6-1.32,2.68-1.42,5.42,1.47,4.31-.1,6.66S68.25,66.22,67.4,67.08s.72,1.64-3.2,3.21-3.92,2.35-6.28,3.14S53,77.05,51.16,79.16s-3.06,5.83-4,7.11a16.67,16.67,0,0,0-2.37,8c-.18,3.46,1.06,4.58,1.06,4.58" transform="translate(-12.88 -3.35)" fill="none" stroke="#a67c52" stroke-miterlimit="10" stroke-width="0.2"/><path d="M43.16,93.09s.64-5.54,2.21-7.89,4.71-7.85,5.49-7.85,3-2.54,3-2.54" transform="translate(-12.88 -3.35)" fill="none" stroke="#a67c52" stroke-miterlimit="10" stroke-width="0.2"/></g><g id="Hårslinga_höger" data-name="Hårslinga höger"><path d="M108.53,36.94s7.06-4.71,14.91,4.71c2.84,3.41,0,3.14,4.71,7.84s10.34,9.59,16.94,12.64,7.74,11,7.95,16.46,9.63,11.71,9.63,11.71-6.92-7.56-7.38-12.81,1.1-11.52-2.82-14.66S138.52,57.27,137.65,55s-7.93-16.44-11.86-17.23-12.55-13.33-18-5.49" transform="translate(-12.88 -3.35)" fill="#c69c6d" stroke="#a67c52" stroke-miterlimit="10" stroke-width="0.39"/><path d="M108.18,33s2.31-2.22,4.67-1.68,4.54.21,7.76,3.52,2.5,3.91,4.43,4.39a25,25,0,0,1,5.12,2.46" transform="translate(-12.88 -3.35)" fill="none" stroke="#a67c52" stroke-miterlimit="10" stroke-width="0.2"/><path d="M108.68,33.72s5.62-2,8-.35,3.7,1.22,5,3.77,2,3.38,4.41,4.53,3.29.81,4,1.77,1.52,3.31,2.3,3.31,1.85,1.5,1.85,1.5" transform="translate(-12.88 -3.35)" fill="none" stroke="#a67c52" stroke-miterlimit="10" stroke-width="0.2"/><path d="M108.68,35.1s5.62-1.91,8-.23,3.34.89,4.44,2.85A14.07,14.07,0,0,0,125,42c1.15.83,4.68,4.63,6.44,6.26s4.12,4.77,4.91,5.56.73,3,2.32,3.44,4.59,2.23,7,3.32,3.21,1.09,4,1.87,1,1,2.07,2.06,2.88,4.57,2.76,6.75a35.93,35.93,0,0,0-.21,4.66c.09,2.22-.69,2.22.09,3.79s4.71,7.86,4.71,7.86" transform="translate(-12.88 -3.35)" fill="none" stroke="#a67c52" stroke-miterlimit="10" stroke-width="0.2"/><path d="M124.17,42.63s2.8,3.33,3.58,4.12a16.72,16.72,0,0,1,3.14,3.92c.79,1.57,2.28,3.18,2.32,3.55s2,1.34,2,1.34,7.45,5.31,8.24,5.31,1.57-.78,3.14.79,2.35,1.57,3.13,2.35a17,17,0,0,1,2.36,3.92c.78,1.57,2.46,3.07,2.41,4.28a18,18,0,0,1-1.58,4.25l2.31,5.6.26,1.79" transform="translate(-12.88 -3.35)" fill="none" stroke="#a67c52" stroke-miterlimit="10" stroke-width="0.2"/></g><path d="M108.31,38.38s5.13-1.7,7.39,0,5.39,2.88,6.56,4.25,8,.31,6.13,4.76-1.86,6.26-.66,8.1c0,0-1.94-.5-1.94-1.29s.77-3.39.78-4.44,2.32-4.19,1.16-4.19-1.35-.28-3.6-.53-5.39-3.34-5.39-3.37-3.94-4.88-11-1.66" transform="translate(-12.88 -3.35)" fill="#c69c6d" stroke="#a67c52" stroke-miterlimit="10" stroke-width="0.39"/><path d="M105,160.61l-.09,5.25,0,1.08c4.6,14.36,3.4,31,2.15,40.24h0" transform="translate(-12.88 -3.35)" fill="none" stroke="#333" stroke-linecap="round" stroke-linejoin="round" stroke-width="0.9"/><g id="Hårstrån_höger" data-name="Hårstrån höger"><path d="M106.57,37.72s3.09-1.32,4.38-1.27A54.2,54.2,0,0,1,117,37.62a12.66,12.66,0,0,1,2.87,1.31c0,.12,2.37,2.21,2.37,2.21" transform="translate(-12.88 -3.35)" fill="none" stroke="#c69c6d" stroke-linecap="round" stroke-linejoin="round" stroke-width="0.39"/><polyline points="93.13 31.28 96.02 30.85 98.84 30.29" fill="none" stroke="#c69c6d" stroke-linecap="round" stroke-linejoin="round" stroke-width="0.39"/><polyline points="93.13 30.29 94.87 29.39 95.98 28.49" fill="none" stroke="#c69c6d" stroke-linecap="round" stroke-linejoin="round" stroke-width="0.39"/><polyline points="93.41 32.73 95.63 32.31 96.47 32.09" fill="none" stroke="#c69c6d" stroke-linecap="round" stroke-linejoin="round" stroke-width="0.39"/><path d="M118.9,32a4.85,4.85,0,0,1,1.71-.33c.58.09,1.7-1.41,3.56.16s.89,2.15,3.56,2.79a53.06,53.06,0,0,0,6.18,1.13c2,.26,5.88,1.43,6.19,2.24a17.49,17.49,0,0,1,1.84,4.11,10,10,0,0,0,2.23,4.45c1,1.22,3.24,1.8,3.32,4.59a31.52,31.52,0,0,1,0,5c-.16,1-.33,3.08-.33,3.08l.08.8" transform="translate(-12.88 -3.35)" fill="none" stroke="#c69c6d" stroke-linecap="round" stroke-linejoin="round" stroke-width="0.39"/><line x1="134.7" y1="61.36" x2="135.56" y2="66.72" fill="none" stroke="#c69c6d" stroke-linecap="round" stroke-linejoin="round" stroke-width="0.39"/><line x1="133.74" y1="59.64" x2="134.28" y2="65.84" fill="none" stroke="#c69c6d" stroke-linecap="round" stroke-linejoin="round" stroke-width="0.39"/><path d="M120.57,33.64a12.1,12.1,0,0,1,2.5,1,8.06,8.06,0,0,0,3.72,1.81c1.57.16,7.86,1.18,7.86,1.18s1.75-.6,2.42.65a20.39,20.39,0,0,1,1.3,5.44,29.1,29.1,0,0,0,2,5.17,20.26,20.26,0,0,0,1.45,2.27c.58.7,1.34.64,1.92,1.46s1.3,2.07,1.3,2.07a16.55,16.55,0,0,1,.51,1.94,11.65,11.65,0,0,1,0,2" transform="translate(-12.88 -3.35)" fill="none" stroke="#c69c6d" stroke-linecap="round" stroke-linejoin="round" stroke-width="0.39"/><path d="M128.66,39.22s3.88,0,4.18,0,3.38,1.27,3.38,1.27l.9,4.44s1.21,2.38,1.84,3.78a8.73,8.73,0,0,0,2.09,3c1.22,1.31,3.14,3.53,3.29,3.73a22.24,22.24,0,0,1,.36,2.72" transform="translate(-12.88 -3.35)" fill="none" stroke="#c69c6d" stroke-linecap="round" stroke-linejoin="round" stroke-width="0.39"/><path d="M130.87,41.67c1-.18,1.54-1,2.37,0s1.68,1,2.24,3a11.14,11.14,0,0,0,1.2,2.74A11.08,11.08,0,0,0,138,49.58" transform="translate(-12.88 -3.35)" fill="none" stroke="#c69c6d" stroke-linecap="round" stroke-linejoin="round" stroke-width="0.39"/><path d="M132.26,44.08a3.1,3.1,0,0,1,2,1.49,11,11,0,0,0,1,1.8" transform="translate(-12.88 -3.35)" fill="none" stroke="#c69c6d" stroke-linecap="round" stroke-linejoin="round" stroke-width="0.39"/></g><g id="Hårstrån_vänster" data-name="Hårstrån vänster"><path d="M104.26,33.05s.5.13-7.89-.31-9-1.07-11.94-.52-5.06,2.2-7.45,3.44-3.6,1.18-4.48,2.4-4.4,3.67-4.82,7.77-1.52,8.93-1.93,8.85-.7,1.83-1.1,2.93-1.05,3.55-1.34,4.19-.69,4.89.23,6.63" transform="translate(-12.88 -3.35)" fill="none" stroke="#c69c6d" stroke-linecap="round" stroke-linejoin="bevel" stroke-width="0.39"/><path d="M104.35,34.8c-.31,0-1.37-1.63-6.13-1.16s-5.89,1.06-9.46.24-3-1.6-4.63-.83-4.26,3-5.82,3.38-3.55,1.91-4.73,2.85-3.23,5.41-3.23,5.41-1,2.12-1.63,3.56-.15,1.27-1.44,5.58a58.35,58.35,0,0,1-2,5.7c-.57,1.63.41,1.08.13,3.71S65,66.92,65,66.92" transform="translate(-12.88 -3.35)" fill="none" stroke="#c69c6d" stroke-linecap="round" stroke-linejoin="bevel" stroke-width="0.39"/><path d="M104.51,38.47s-4.4.11-6.89,0-2.15-.64-5.55.7S87.24,40.85,85.43,42a35.82,35.82,0,0,0-4.21,2.85A7.66,7.66,0,0,1,79.48,46a13,13,0,0,1-1.85.72" transform="translate(-12.88 -3.35)" fill="none" stroke="#c69c6d" stroke-linecap="round" stroke-linejoin="bevel" stroke-width="0.39"/><path d="M72.19,44.08s-1.67,5.3-1.78,5.75-1,3.3-1,3.3l-2.08,4.12s-.77,3-.77,3.62V65" transform="translate(-12.88 -3.35)" fill="none" stroke="#c69c6d" stroke-linecap="round" stroke-linejoin="round" stroke-width="0.39"/><line x1="58.84" y1="47.46" x2="57.41" y2="50.83" fill="none" stroke="#c69c6d" stroke-linecap="round" stroke-linejoin="round" stroke-width="0.39"/><path d="M96.92,37.14s5.13-.62,6.91-.69,2.09.34,2.09.34" transform="translate(-12.88 -3.35)" fill="none" stroke="#c69c6d" stroke-linecap="round" stroke-linejoin="bevel" stroke-width="0.39"/><path d="M104.89,35.66l-2.24-.56c-1-.24-4.7-.3-5.12-.47s-6-.82-7,0a5.28,5.28,0,0,0-1.12,1" transform="translate(-12.88 -3.35)" fill="none" stroke="#c69c6d" stroke-linecap="round" stroke-linejoin="bevel" stroke-width="0.39"/><path d="M102.45,32s-1.24.88-5.17.21-3.76-1.13-5.21-1.17a21.28,21.28,0,0,0-3.5.07c-1.92.16-4.53-.16-5.13.1a11.61,11.61,0,0,1-1.62.52" transform="translate(-12.88 -3.35)" fill="none" stroke="#c69c6d" stroke-linecap="round" stroke-linejoin="bevel" stroke-width="0.39"/><path d="M95.53,30.61a25.33,25.33,0,0,0,3.57.11s-.27.09.5.29" transform="translate(-12.88 -3.35)" fill="none" stroke="#c69c6d" stroke-linecap="round" stroke-linejoin="bevel" stroke-width="0.39"/></g></g></g></g></svg>