<svg xmlns="http://www.w3.org/2000/svg" xmlns:xlink="http://www.w3.org/1999/xlink" viewBox="0 0 3398.3 1785.83"><defs><radialGradient id="New_Gradient_Swatch_1" cx="684.29" cy="839.81" r="90.55" gradientUnits="userSpaceOnUse"><stop offset="0.21" stop-color="#de8c9c"/><stop offset="0.3" stop-color="#df929f"/><stop offset="0.43" stop-color="#e1a4a9"/><stop offset="0.57" stop-color="#e6c1b9"/><stop offset="0.64" stop-color="#e8d1c2"/><stop offset="0.8" stop-color="#e8d1c2"/><stop offset="0.97" stop-color="#e8d1c2"/></radialGradient><radialGradient id="New_Gradient_Swatch_1-2" cx="1104.35" cy="843.44" r="94.67" xlink:href="#New_Gradient_Swatch_1"/><radialGradient id="radial-gradient" cx="893.26" cy="847.16" r="50.92" gradientTransform="translate(158.18 32.27) scale(0.82 0.94)" gradientUnits="userSpaceOnUse"><stop offset="0.05" stop-color="#e4b4b3"/><stop offset="1" stop-color="#e8d1c2"/></radialGradient></defs><g style="isolation:isolate"><g id="Layer_1" data-name="Layer 1"><rect width="3398.3" height="1785.83" fill="#e9eff4"/><text transform="translate(1694.18 845.44)" font-size="179.69" fill="#1b3641" font-family="FenwayParkJF">Emilie B Järvman</text><text transform="translate(1771 993.27)" font-size="111.23" fill="#1b3641" font-family="AtramentSemiBold-Regular, Atrament"><tspan letter-spacing="-0.02em">W</tspan><tspan x="64.74" y="0">eb developer &amp; Illustrator</tspan></text><g id="face_3"><path id="Bakgrundscirkel" d="M1498.65,929.3a607.93,607.93,0,0,1-97,330.33c-3.46,5.4-7,10.75-10.69,16-5.19,7.6-10.65,15.15-16.26,22.49-4.19,5.56-8.49,11.07-12.9,16.47l-4.61,5.56c-4.35,5.24-8.81,10.38-13.32,15.46-1.73,1.89-3.46,3.83-5.19,5.72-2.25,2.52-4.61,5-6.92,7.5-2,2-3.93,4.09-5.92,6.13-2.15,2.26-4.36,4.46-6.56,6.66s-4.46,4.41-6.71,6.56-4.46,4.35-6.76,6.44c-4.78,4.51-9.6,8.92-14.53,13.22-2.1,1.89-4.25,3.72-6.4,5.56-2.35,2-4.77,4.09-7.18,6.08-2.25,1.89-4.61,3.77-6.92,5.66l-.79.63c-2.25,1.83-4.56,3.67-6.86,5.45-2.47,1.94-4.93,3.83-7.45,5.72s-5,3.77-7.55,5.61c-8.44,6.19-17.09,12.22-25.9,17.93-3.1,2.1-6.24,4.09-9.39,6-2.67,1.73-5.35,3.41-8,5a3.4,3.4,0,0,1-.53.37c-3,1.83-6.08,3.67-9.17,5.45-.68.42-1.36.79-2.1,1.21-1.52.89-3,1.78-4.61,2.62-2.47,1.42-5,2.78-7.45,4.14-4.46,2.47-8.91,4.83-13.42,7.19-2.2,1.15-4.46,2.3-6.71,3.35-2.73,1.42-5.46,2.78-8.24,4.09-3.09,1.52-6.18,3-9.33,4.41-.21.1-.42.15-.63.26-2,.94-4,1.89-6.08,2.78-7.76,3.46-15.63,6.81-23.6,10-.73.26-1.46.58-2.2.84-4,1.57-8.07,3.14-12.11,4.61-3.3,1.21-6.66,2.41-10.07,3.57-1.31.47-2.57.94-3.88,1.36s-2.72.94-4.09,1.36a.17.17,0,0,1-.15.06c-3.67,1.26-7.34,2.41-11.07,3.56s-7.29,2.26-11,3.25c-1.78.58-3.56,1.1-5.4,1.58a.18.18,0,0,1-.15,0c-4,1.15-8,2.2-12,3.25-6.71,1.73-13.48,3.36-20.29,4.82v.06l-1.52.31c-2.52.58-5.14,1.1-7.71,1.63a7,7,0,0,1-1,.21c-3.93.83-7.86,1.57-11.85,2.25-1.89.42-3.83.73-5.77,1.05-2.93.52-5.87,1-8.86,1.47-2.2.36-4.4.73-6.6,1-3.88.63-7.76,1.16-11.7,1.63-4.82.63-9.7,1.2-14.57,1.68l-1.16.15c-4,.37-8,.74-12.06,1a1.05,1.05,0,0,1-.42.05l-1.73.16.16.16q-16.91,1.26-34.13,1.52v0l-6.09.15c-1.78.06-3.61.06-5.4.06h-.89c-5,0-10-.06-14.94-.21h-.47a25.51,25.51,0,0,1-2.78,0c-4.51-.11-9-.27-13.48-.48-1.68-.1-3.35-.15-5-.31-2.67-.11-5.4-.26-8.08-.47l-6.34-.48a1.08,1.08,0,0,1-.42-.05c-4-.31-8.07-.68-12.06-1l-1.15-.15c-4.88-.48-9.75-1.05-14.58-1.68-3.93-.47-7.81-1-11.69-1.63-2.2-.26-4.41-.63-6.61-1-3-.42-5.92-.95-8.86-1.47-1.94-.32-3.88-.63-5.77-1.05-4-.68-7.91-1.42-11.85-2.25a6.9,6.9,0,0,1-1-.21c-3.94-.79-7.87-1.63-11.75-2.52-6-1.36-11.9-2.78-17.77-4.3-4-1-8-2.1-12-3.25a.2.2,0,0,1-.16,0c-1.57-.42-3.14-.84-4.66-1.31v-.06a1.84,1.84,0,0,1-.74-.21c-3.67-1-7.34-2.09-11-3.25s-7.39-2.3-11.06-3.56a.18.18,0,0,1-.16-.06c-2.67-.89-5.29-1.78-8-2.72-3.41-1.16-6.76-2.36-10.07-3.57-4-1.47-8.07-3-12.11-4.61-.73-.26-1.47-.58-2.2-.84-.42-.21-.89-.37-1.31-.53v0c-7.5-2.93-14.94-6.08-22.28-9.38-2-.89-4.09-1.84-6.09-2.78-.21-.11-.42-.16-.63-.26-3.14-1.42-6.24-2.89-9.33-4.41-2.78-1.31-5.51-2.67-8.23-4.09-2.26-1-4.51-2.2-6.71-3.35-4.51-2.36-9-4.72-13.43-7.19-2.46-1.36-5-2.72-7.44-4.14-1.58-.84-3.1-1.73-4.62-2.62-.73-.42-1.41-.79-2.09-1.21-3.1-1.78-6.14-3.62-9.18-5.45a2.92,2.92,0,0,1-.52-.37c-2.68-1.57-5.35-3.25-8-5-3.14-1.94-6.29-3.93-9.38-6-8.81-5.71-17.46-11.74-25.9-17.93-2.52-1.84-5-3.72-7.55-5.61s-5-3.78-7.45-5.72c-2.31-1.78-4.61-3.62-6.87-5.45l-.79-.63c-2.3-1.89-4.66-3.77-6.92-5.66-2.41-2-4.82-4-7.18-6.08-2.15-1.84-4.3-3.67-6.4-5.56-4.93-4.3-9.75-8.71-14.52-13.22-2.31-2.09-4.56-4.3-6.77-6.44s-4.5-4.36-6.71-6.56-4.4-4.46-6.55-6.66c-2-2-3.93-4.09-5.93-6.13-2.3-2.52-4.66-5-6.92-7.5-1.73-1.89-3.46-3.83-5.19-5.72q-6.76-7.62-13.32-15.46l-4.61-5.56c-4.4-5.4-8.7-10.91-12.9-16.47-5.61-7.34-11.06-14.89-16.25-22.49-3.67-5.24-7.24-10.59-10.7-16a607.75,607.75,0,0,1-55.27-108.17c-.78-2-1.57-4.09-2.35-6.14-1.26-3.35-2.52-6.71-3.73-10.12A608.75,608.75,0,0,1,277,929.3c0-337.36,273.49-610.86,610.85-610.86S1498.65,591.94,1498.65,929.3Z" transform="translate(-1.64 0)" fill="#bfc9d1" stroke="#818181" stroke-miterlimit="10" stroke-width="9.48"/><g id="Knut_left" data-name="Knut left"><path d="M940.24,352.53c0,55-43.16,55.05-99.63,55.05S721.56,360.35,738.37,308C782.94,169,788.75,203.5,840.61,208.33,896.84,213.57,940.24,297.5,940.24,352.53Z" transform="translate(-1.64 0)" fill="#c69c6c" stroke="#a67d52" stroke-miterlimit="10" stroke-width="2.53"/><path d="M818.81,204.54S803,225.39,769.35,226" transform="translate(-1.64 0)" fill="none" stroke="#a67d52" stroke-miterlimit="10" stroke-width="1.31"/><path d="M765.68,233.47s33.46,7,67.31-26.09" transform="translate(-1.64 0)" fill="none" stroke="#a67d52" stroke-miterlimit="10" stroke-width="1.31"/><path d="M844.16,208.77s-16.94,34.15-83.65,36.52" transform="translate(-1.64 0)" fill="none" stroke="#a67d52" stroke-miterlimit="10" stroke-width="1.31"/><path d="M863.69,215s-52.4,58.85-111.14,51" transform="translate(-1.64 0)" fill="none" stroke="#a67d52" stroke-miterlimit="10" stroke-width="1.31"/><path d="M757,360.06s-24.27-53.28,8.72-93.33" transform="translate(-1.64 0)" fill="none" stroke="#a67d52" stroke-miterlimit="10" stroke-width="1.31"/><path d="M776.77,265.72s-34.1,38.95-6.1,94.34" transform="translate(-1.64 0)" fill="none" stroke="#a67d52" stroke-miterlimit="10" stroke-width="1.31"/><path d="M786.6,264s-33.05,63,0,96.73" transform="translate(-1.64 0)" fill="none" stroke="#a67d52" stroke-miterlimit="10" stroke-width="1.31"/><path d="M797.68,260.32s-25,70.57,3.73,99.74" transform="translate(-1.64 0)" fill="none" stroke="#a67d52" stroke-miterlimit="10" stroke-width="1.31"/><path d="M856.39,222.4s20.29,8.72,18,22.23" transform="translate(-1.64 0)" fill="none" stroke="#a67d52" stroke-miterlimit="10" stroke-width="1.31"/><path d="M847.49,230.36s14.45,8.83,11.65,23.55" transform="translate(-1.64 0)" fill="none" stroke="#a67d52" stroke-miterlimit="10" stroke-width="1.31"/><path d="M836.69,238.86s14.92,8.24,12,24.25" transform="translate(-1.64 0)" fill="none" stroke="#a67d52" stroke-miterlimit="10" stroke-width="1.31"/><path d="M826.23,246.59s19.47,20.61,11.68,29.19" transform="translate(-1.64 0)" fill="none" stroke="#a67d52" stroke-miterlimit="10" stroke-width="1.31"/><path d="M810.94,254.63s27.37,25.89,20.66,35.68" transform="translate(-1.64 0)" fill="none" stroke="#a67d52" stroke-miterlimit="10" stroke-width="1.31"/><path d="M795.86,266s35.47,14.86,34.87,35" transform="translate(-1.64 0)" fill="none" stroke="#a67d52" stroke-miterlimit="10" stroke-width="1.31"/><line x1="790.9" y1="278.5" x2="806.43" y2="272.38" fill="none" stroke="#a67d52" stroke-miterlimit="10" stroke-width="1.31"/><path d="M790.9,286.12s20.3-10.55,24.52-8.78" transform="translate(-1.64 0)" fill="none" stroke="#a67d52" stroke-miterlimit="10" stroke-width="1.31"/><path d="M789.34,295.12S811,278.9,820.56,281.63" transform="translate(-1.64 0)" fill="none" stroke="#a67d52" stroke-miterlimit="10" stroke-width="1.31"/><path d="M788.23,304.32s33.26-19.13,37.58-16.92" transform="translate(-1.64 0)" fill="none" stroke="#a67d52" stroke-miterlimit="10" stroke-width="1.31"/><path d="M787.61,317.91s32-26.11,42.52-22" transform="translate(-1.64 0)" fill="none" stroke="#a67d52" stroke-miterlimit="10" stroke-width="1.31"/><path d="M788.23,328.51s20.92-24.76,41.9-16.1" transform="translate(-1.64 0)" fill="none" stroke="#a67d52" stroke-miterlimit="10" stroke-width="1.31"/><path d="M789.91,338.11s29.73-22.48,40.22-17.14" transform="translate(-1.64 0)" fill="none" stroke="#a67d52" stroke-miterlimit="10" stroke-width="1.31"/><path d="M793.43,348.31s31.27-20.46,39.23-16" transform="translate(-1.64 0)" fill="none" stroke="#a67d52" stroke-miterlimit="10" stroke-width="1.31"/><path d="M801.41,359.4s30.72-13.9,37.58-13" transform="translate(-1.64 0)" fill="none" stroke="#a67d52" stroke-miterlimit="10" stroke-width="1.31"/><path d="M756.13,256.35s65.45-2.71,98.56-45" transform="translate(-1.64 0)" fill="none" stroke="#a67d52" stroke-miterlimit="10" stroke-width="1.31"/><path d="M775.78,215.29s19.37-.21,34.24-12.76" transform="translate(-1.64 0)" fill="none" stroke="#a67d52" stroke-miterlimit="10" stroke-width="1.31"/></g><path id="Bakhår" d="M631.53,666.41S590.84,614.6,599.06,574s18.71-40.59,18.71-56.32,10-44,10.23-48.22,14.69-64.14,33.69-70.88,73.42-38,90.78-38.11,67.26,2.1,79-4.24,36.56-18.32,58.24-14.95,40.2,17.64,62.4,18.37,55.87-.73,62.63,0,28.87,20.08,41.41,23.51,54.49-7.05,70.22,13.92,31.46,57.68,36.7,68.17,31.46,26.21,26.22,47.19-9.73,29.7-10.11,51.55,4.86,69,4.86,74.29-9.31,47.59-20.39,60.5S631.53,666.41,631.53,666.41Z" transform="translate(-1.64 0)" fill="#bc9063" stroke="#a67d52" stroke-miterlimit="10" stroke-width="2.62"/><g id="hals"><path d="M877.93,1227.83l-14.84-13-.27-.57c-.28-.59-28.06-59.39-50.16-77.26l-2.48-2,2.12-2.38c.43-.49,1.74-2,30.15-16.33,29-37.4,30.8-122.32,30.87-139v-4l3.82,1A76.33,76.33,0,0,0,896.87,977a70.28,70.28,0,0,0,12.29-1.08l2.18-.38,2.06,3.85-.06.87c-5.91,85,27.26,142.15,34,152.75l1.72,2.73-2.82,1.56c-9.54,5.27-18.72,19.22-26.54,40.33a239.84,239.84,0,0,0-9.15,31.29l-.13.6-12.59,18.35Z" transform="translate(-1.64 0)" fill="#e9d1c2"/><path d="M876.36,977.23a78.92,78.92,0,0,0,20.5,2.77,73.37,73.37,0,0,0,12.83-1.12l.61,1.13c-5.35,77,21.29,133.8,34.44,154.59-24.94,13.79-37.2,73.67-37.2,73.67l-11.34,16.52H879.08l-13.51-11.86s-28.08-59.81-51-78.33c1.37-1.55,29.86-15.94,29.86-15.94,29.74-37.57,31.85-121.65,31.93-141.43m-6.05-7.92,0,7.89c-.07,16.46-1.82,99.75-29.82,136.65-28.33,14.33-29.59,15.76-30.43,16.7l-4.24,4.77,5,4c8.77,7.09,20,22.42,32.59,44.32,9.66,16.87,16.66,31.72,16.73,31.86l.54,1.15.95.84,13.5,11.86,1.72,1.51H899.4l1.81-2.64,11.34-16.52.7-1,.25-1.21c3.26-15.9,15.77-59.39,34.18-69.57l5.65-3.12-3.45-5.46c-6.62-10.46-39.35-66.9-33.51-150.9l.12-1.75-.82-1.54-.61-1.14-2.08-3.9-4.35.78a68.2,68.2,0,0,1-11.77,1,73,73,0,0,1-18.93-2.57l-7.62-2Z" transform="translate(-1.64 0)" fill="#b69e8d"/><g opacity="0.05" style="mix-blend-mode:multiply"><path d="M944.74,1134.6C931.59,1113.81,905,1057,910.3,980l-.61-1.13c-2.25.4-4.47.59-6.69.78-9.29,54.94,16.83,134.47,27.86,184.34C942.29,1168.44,949.63,1158,944.74,1134.6Z" transform="translate(-1.64 0)" fill="#1e1e1c"/></g><g opacity="0.05" style="mix-blend-mode:multiply"><path d="M880.48,978.12c-1.38-.29-2.77-.53-4.12-.89-.08,19.78-9.72,107.7-39.46,145.27,0,0-15,4.28-16.38,5.82,10.8,8.73,14.13,31.65,21.61,47.51C862,1116.91,885.71,1041.22,880.48,978.12Z" transform="translate(-1.64 0)" fill="#1e1e1c"/></g></g><path d="M924.51,989.86c-1.16.36-2.31.68-3.46,1-8.5,2.57-16.52,9.39-25.38,9.18-7.55-.16-15.52-6.61-22.71-8.76-1.62-.47-3.3-1-4.93-1.46-76.37.63-158.93-6-227.67-42.44-35.77-18.95-67-47.5-82.69-85.43C527.84,789.78,573,714.41,618.82,660c7.18-8.24,25.8-155.63,25.8-155.63,4.56-35.7,26.89-67.74,55.31-88.77,34.35-25.48,73.57-34.34,115.25-39.64a656.82,656.82,0,0,1,150.54-1.62c45.67,4.82,91.23,12.74,128.67,41.26A161.06,161.06,0,0,1,1112,431.23c19.34,20.08,31.3,45.72,35.86,73.14,0,0,18.56,147.39,25.75,155.63,47.66,54.62,92,130.19,60.67,203.51-16.21,37.94-48,66.25-84.11,85C1081.74,983.9,1000.2,990.48,924.51,989.86Z" transform="translate(-1.64 0)" fill="#e9d1c2" stroke="#b69e8d" stroke-miterlimit="10" stroke-width="6.08"/><ellipse cx="684.29" cy="839.81" rx="102.25" ry="77.1" fill="url(#New_Gradient_Swatch_1)"/><ellipse cx="1104.35" cy="843.44" rx="106.9" ry="80.61" fill="url(#New_Gradient_Swatch_1-2)"/><path id="mun" d="M897.2,928.49l-1,10.59-1-10.59s-19.7-20.56-42.78,0c0,0,15,27.32,43.79,23.38C925,955.81,940,928.49,940,928.49,916.9,907.93,897.2,928.49,897.2,928.49Z" transform="translate(-1.64 0)" fill="#ca97a5" stroke="#bc8fa2" stroke-linecap="round" stroke-linejoin="round" stroke-width="6.08"/><g id="Glasögonbåge"><path d="M620.14,662.85l-2.22,11.41a40.39,40.39,0,0,1-4.07,5.4c-.25.31-3.07,2.46-3.25,2.7-1.71.13,1.7-.24,0,0-41.12,4.2-70.38,25.49-70.87,25.86a9.13,9.13,0,0,1-10.89-14.66c.55-.37,34.43-25.07,81.76-29.57C614.73,663.63,615.83,662.91,620.14,662.85Z" transform="translate(-1.64 0)" fill="#1b1b1b"/></g><g id="Glasögonbåge-2" data-name="Glasögonbåge"><path d="M1264.5,706.21a8.33,8.33,0,0,1-6.94,3.83,8.14,8.14,0,0,1-5-1.76c-18.95-14.66-37.85-22.21-55.54-25.12a111.57,111.57,0,0,0-17.7-1.59l-2.51-3.28c-1.59-2.07-3.93-9.42-5.12-15.5,6.2-.25,13.37.53,20,1.2,22.3,2.25,46.55,10.65,70.9,29.51A9.47,9.47,0,0,1,1264.5,706.21Z" transform="translate(-1.64 0)" fill="#343434"/></g><path d="M614.44,644.23s3.85,12.75-3.17,22.11-14.92,19.89-22.52,26-16.11,12.29-16.11,12.29-3.49,2.63-6.71-1.46,1.75,12.61,1.75,12.61,4.68,15.76,10.83,11.67,17.26-14.63,21.64-21.65,20-35.39,20-35.39L630.58,637Z" transform="translate(-1.64 0)" fill="#bc9063" stroke="#a67d52" stroke-miterlimit="10" stroke-width="2.62"/><path d="M569.38,712.12s20.8-8.11,23-11.91,19-25,22.35-32.12,8-31.08,8-31.08" transform="translate(-1.64 0)" fill="none" stroke="#c69c6c" stroke-linecap="round" stroke-linejoin="bevel" stroke-width="2.62"/><g id="glasögon"><ellipse cx="1100.45" cy="732.67" rx="141.18" ry="112.73" fill="#b69e8d" opacity="0.5"/><path d="M1102.43,850.39c-82.88,0-150.31-41.21-150.31-124.09s67.43-113.6,150.31-113.6,150.31,30.72,150.31,113.6S1185.31,850.39,1102.43,850.39Zm0-219.45c-72.82,0-132.06,22.54-132.06,95.36s59.24,105.84,132.06,105.84,132.06-33,132.06-105.84S1175.25,630.94,1102.43,630.94Z" transform="translate(-1.64 0)" fill="#343434"/><ellipse cx="686.89" cy="732.67" rx="141.18" ry="112.73" fill="#b69e8d" opacity="0.5"/><path d="M537.89,726.3c0-82.88,67.43-113.6,150.31-113.6s150.31,30.72,150.31,113.6S771.08,850.39,688.2,850.39,537.89,809.18,537.89,726.3Zm18.25,0c0,72.82,59.24,105.84,132.06,105.84s132.06-33,132.06-105.84S761,630.94,688.2,630.94,556.14,653.48,556.14,726.3Z" transform="translate(-1.64 0)" fill="#343434"/><path d="M806.29,714.52s86.5-64.38,175.36,0" transform="translate(-1.64 0)" fill="none" stroke="#343434" stroke-linecap="round" stroke-miterlimit="10" stroke-width="18.25"/></g><g id="ögon"><g id="öga_vänster"><circle cx="717.74" cy="770.55" r="31.42" fill="#fff" stroke="#3d3d3b" stroke-miterlimit="10" stroke-width="6.08"/><ellipse cx="727.23" cy="781.38" rx="17.67" ry="16.94" fill="#1e1e1c"/><path d="M635.73,701.87s18.41-15.38,33.38-17.87c37.17-6.19,48.17,13.39,53.2-1S651.34,638.69,635.73,701.87Z" transform="translate(-1.64 0)" fill="#544842"/><path d="M1165.93,701.27s-18.64-15.1-33.65-17.37c-37.26-5.63-48,14.11-53.21-.19S1149.37,638.33,1165.93,701.27Z" transform="translate(-1.64 0)" fill="#544842"/></g><g id="öga_höger"><circle cx="1081.69" cy="774.76" r="31.42" fill="#fff" stroke="#3d3d3b" stroke-miterlimit="10" stroke-width="6.08"/><ellipse cx="1072.19" cy="785.6" rx="17.67" ry="16.94" fill="#1e1e1c"/></g></g><g id="näsa"><path d="M896.2,881.76c-19.55-1.26-16.54-9.12-16.54-9.12C854.19,881.23,851.14,859,851.14,859" transform="translate(-1.64 0)" fill="none" stroke="#b69e8d" stroke-linecap="round" stroke-linejoin="round" stroke-width="4.87"/><path d="M941.25,859s-3,22.26-28.52,13.67c0,0,3,7.86-16.53,9.12" transform="translate(-1.64 0)" fill="none" stroke="#b69e8d" stroke-linecap="round" stroke-linejoin="round" stroke-width="4.87"/></g><g id="skjorta"><path d="M889.32,1543.19c-5.66,0-10.58-.07-15-.21H874l-.91,0c-.71,0-1.41,0-2.08-.08-4.48-.1-8.9-.25-13.49-.47l-1.68-.09c-1.11-.06-2.25-.12-3.41-.23-2.77-.11-5.5-.27-8.11-.47l-6.23-.46a5.13,5.13,0,0,1-.83-.09c-4-.31-7.85-.66-11.81-1l-1.22-.16c-4.47-.43-9.25-1-14.62-1.69-4.34-.52-8.18-1-11.73-1.62-2.24-.27-4.49-.65-6.66-1-3-.42-6-1-8.91-1.48-1.88-.3-3.86-.62-5.82-1-4.32-.74-8.18-1.48-11.8-2.25a8.55,8.55,0,0,1-1.22-.25c-4-.81-7.94-1.65-11.67-2.51-6.63-1.51-12.47-2.92-17.86-4.32-3.77-1-7.79-2-11.88-3.21a3.39,3.39,0,0,1-.59-.17c-1.51-.4-3-.81-4.5-1.27l-.19-.07a4.91,4.91,0,0,1-.62-.21c-3.42-.93-7-2-10.9-3.24-3.27-1-7.08-2.2-10.87-3.5a3.2,3.2,0,0,1-.66-.22c-2.92-1-5.39-1.82-7.75-2.65-3.64-1.24-7.15-2.5-10.1-3.58-4.07-1.48-8.19-3.09-12.17-4.64l-1.12-.42c-.34-.14-.67-.27-1-.39l-.33-.14a5.52,5.52,0,0,0-.71-.28l-.31-.12a3,3,0,0,1-2-2.85,5.5,5.5,0,0,1,0-.74h0v.06c0-.13,0-.25,0-.38,5-39.67,11.7-78.19,11.77-78.58a2.91,2.91,0,0,1,.29-.86l41-80,.08-.14c16.58-28.6,35.28-69.43,51.78-105.45,12-26.26,23.39-51.06,32.58-68.27,2.12-4,4.28-7.8,6.43-11.36a3,3,0,0,1,2.29-1.46h.31a3.06,3.06,0,0,1,2.23,1c2.16,2.32,4.46,4.84,6.84,7.48l3.79,4.26c.58.65,1.17,1.31,1.76,2l2.27,2.56c4.13,4.72,8.35,9.75,12.58,15,.09.11.17.23.25.35s.18.22.25.32q1.14,1.41,2.25,2.82c.74.94,1.48,1.87,2.24,2.81a395.55,395.55,0,0,1,26.59,37.49c8.29,13.46,14.46,25.93,18.36,37.09h.42c7.93-22.78,25-50.25,50.63-81.68,3.3-4,6.54-7.91,9.64-11.53,1.05-1.17,2-2.29,2.82-3.25,4.27-4.92,8.36-9.4,11.35-12.66a3,3,0,0,1,2.24-1h.26a3.07,3.07,0,0,1,2.3,1.37c6.22,9.59,12.28,19.39,18,29.13a3.82,3.82,0,0,1,.34.64c41.83,70.93,68.09,139.76,82.77,185.14a3.06,3.06,0,0,1,.26.74c7.88,24.31,12,40.58,12.84,44,2.45,3.29,8.17,15.11,9.68,94a.41.41,0,0,1,0,.11,3,3,0,0,1-2,2.87c-1.2.42-2.56.89-3.9,1.31a3.63,3.63,0,0,1-.61.2c-3.79,1.3-7.61,2.49-10.9,3.51-3.92,1.25-7.53,2.32-11,3.26-1.79.58-3.5,1.08-5.21,1.53a4.43,4.43,0,0,1-.58.16c-4.09,1.18-8.27,2.28-11.88,3.21-7.05,1.82-13.56,3.37-19.89,4.74a2.66,2.66,0,0,1-.5.16c-3,.68-6.12,1.31-9.13,1.92a7.36,7.36,0,0,1-1.23.26c-3.61.77-7.47,1.51-11.79,2.25-2,.43-4,.75-5.87,1.06-2.88.52-5.89,1-8.92,1.48-2.12.35-4.36.73-6.61,1-3.55.57-7.39,1.1-11.75,1.63-5.34.69-10.12,1.25-14.59,1.68l-1.23.16c-4,.37-7.85.72-11.81,1a4.62,4.62,0,0,1-.8.09l-.46,0a3,3,0,0,1-1,.26c-11.57.86-23.12,1.38-34.32,1.53h0a2.63,2.63,0,0,1-.49,0l-5.52.15c-1.81,0-3.67,0-5.48,0Z" transform="translate(-1.64 0)" fill="#4e4d4d"/><path d="M804.8,1152.61c2.05,2.2,4.35,4.72,6.82,7.45q1.8,2,3.77,4.24c1.31,1.47,2.62,3,4,4.56,4,4.57,8.18,9.55,12.48,14.84a4.29,4.29,0,0,0,.47.63c1.52,1.89,3,3.78,4.51,5.67a393.77,393.77,0,0,1,26.37,37.17c8,12.95,14.68,26.11,18.77,38.54h4.78c.21-.63.42-1.21.63-1.84,9.33-27,30.77-57.2,50.17-80.95q5-6.06,9.6-11.49c1-1.1,1.94-2.2,2.83-3.25,4.09-4.72,7.92-8.91,11.27-12.58,6.3,9.7,12.33,19.45,18,29.15a.2.2,0,0,1,0,.16c42.27,71.57,68.69,141.52,82.8,185.14,0,.11.1.16.1.26,9,27.64,13,44.63,13,44.63,6.29,7.65,8.65,51.59,9.43,92.7v0c-1.36.47-2.72.94-4.09,1.36a.17.17,0,0,1-.15.06c-3.67,1.26-7.34,2.41-11.07,3.56s-7.29,2.26-11,3.25c-1.78.58-3.56,1.1-5.4,1.58a.18.18,0,0,1-.15,0c-4,1.15-8,2.2-12,3.25-6.71,1.73-13.48,3.36-20.29,4.82v.06c-3,.68-6.14,1.31-9.23,1.94a7,7,0,0,1-1,.21c-3.93.83-7.86,1.57-11.85,2.25-1.89.42-3.83.73-5.77,1.05-2.93.52-5.87,1-8.86,1.47-2.2.36-4.4.73-6.6,1-3.88.63-7.76,1.16-11.7,1.63-4.82.63-9.7,1.2-14.57,1.68l-1.16.15c-4,.37-8,.74-12.06,1a1.05,1.05,0,0,1-.42.05l-1.73.16.16.16q-16.91,1.26-34.13,1.52v0l-6.09.15c-1.78.06-3.61.06-5.4.06h-.89c-5,0-10-.06-14.94-.21h-.47l-.83,0c-.67,0-1.32,0-2-.07-4.51-.11-9-.27-13.48-.48-1.68-.1-3.35-.15-5-.31-2.67-.11-5.4-.26-8.08-.47l-6.34-.48a1.08,1.08,0,0,1-.42-.05c-4-.31-8.07-.68-12.06-1l-1.15-.15c-4.88-.48-9.75-1.05-14.58-1.68-3.93-.47-7.81-1-11.69-1.63-2.2-.26-4.41-.63-6.61-1-3-.42-5.92-.95-8.86-1.47-1.94-.32-3.88-.63-5.77-1.05-4-.68-7.91-1.42-11.85-2.25a6.9,6.9,0,0,1-1-.21c-3.94-.79-7.87-1.63-11.75-2.52-6-1.36-11.9-2.78-17.77-4.3-4-1-8-2.1-12-3.25a.2.2,0,0,1-.16,0c-1.57-.42-3.14-.84-4.66-1.31v-.06a1.84,1.84,0,0,1-.74-.21c-3.67-1-7.34-2.09-11-3.25s-7.39-2.3-11.06-3.56a.18.18,0,0,1-.16-.06c-2.67-.89-5.29-1.78-8-2.72-3.41-1.16-6.76-2.36-10.07-3.57-4-1.47-8.07-3-12.11-4.61-.73-.26-1.47-.58-2.2-.84-.42-.21-.89-.37-1.31-.53v0c0-.21.05-.42.05-.63,5.09-40.06,11.75-78.44,11.75-78.44l40.95-80c28.63-49.39,62.55-132.87,84.42-173.82,2.2-4.14,4.35-7.92,6.34-11.22m0-6.08-.63,0a6.08,6.08,0,0,0-4.58,2.91c-2.18,3.61-4.37,7.48-6.51,11.51-9.22,17.28-20.61,42.12-32.66,68.43-16.47,35.95-35.14,76.71-51.65,105.19l-.15.28-41,80a6.3,6.3,0,0,0-.58,1.73c-.06.39-6.74,39-11.78,78.72,0,.13,0,.27,0,.41a7.71,7.71,0,0,0-.06,1v0a6.08,6.08,0,0,0,3.94,5.7l.33.12.43.16c.22.11.41.19.64.28l.92.35,1.2.46c4,1.55,8.09,3.15,12.17,4.63,2.77,1,6.43,2.34,10.16,3.6,2.33.82,4.77,1.66,7.64,2.62a8.07,8.07,0,0,0,.87.29c3.78,1.29,7.58,2.48,10.86,3.49,3.84,1.23,7.39,2.28,10.82,3.22a5.4,5.4,0,0,0,.65.22l.22.07c1.49.47,3,.87,4.46,1.27a6.89,6.89,0,0,0,.81.23c4.06,1.17,8.07,2.22,11.84,3.2,5.41,1.4,11.28,2.82,18,4.34,3.7.85,7.61,1.69,11.62,2.49a12.22,12.22,0,0,0,1.4.3c3.61.76,7.46,1.5,11.75,2.23,2,.44,4,.76,5.92,1.08,2.9.51,5.9,1,9,1.48,2.18.36,4.41.73,6.68,1,3.58.58,7.44,1.11,11.78,1.63,5.35.7,10.13,1.25,14.62,1.69l.49.06.52.08.3,0c3.92.36,7.77.71,11.69,1a7.62,7.62,0,0,0,1.1.11l6.15.45c2.62.21,5.36.37,8.12.48,1.18.11,2.33.17,3.43.22l1.62.09h.1c4.6.21,9,.37,13.51.47.6,0,1.38.08,2.2.08.32,0,.65,0,1,0h.22c4.46.14,9.39.21,15,.21h.89c1.83,0,3.71,0,5.58,0l3-.08,2.32-.06c.21,0,.42,0,.64,0h.08c11.26-.15,22.87-.67,34.5-1.53a6.25,6.25,0,0,0,1.5-.31,6.64,6.64,0,0,0,1-.1c3.93-.31,7.77-.66,11.69-1l.31,0,.52-.08.49-.06c4.48-.44,9.27-1,14.61-1.69,4.34-.52,8.2-1,11.79-1.63,2.27-.28,4.51-.65,6.68-1,3.06-.43,6-1,8.95-1.48,1.93-.32,3.93-.64,5.92-1.08,4.3-.74,8.15-1.47,11.76-2.23a12.69,12.69,0,0,0,1.4-.3c3-.61,6.08-1.24,9.08-1.91a4.89,4.89,0,0,0,.72-.21c6.29-1.36,12.77-2.91,19.76-4.71,3.77-1,7.78-2,11.84-3.2a6.39,6.39,0,0,0,.78-.22c1.69-.45,3.38-.94,5.16-1.51,3.49-1,7.11-2,11.07-3.29,3.23-1,7-2.19,10.81-3.48a6.3,6.3,0,0,0,.77-.25c1.31-.41,2.6-.86,3.84-1.29a6.14,6.14,0,0,0,4.13-5.76v-.17c-.47-24.13-1.37-44.09-2.68-59.3-2.06-23.81-4.73-32-7.21-35.87-1.07-4.3-5.1-20-12.75-43.6a7.11,7.11,0,0,0-.34-1c-14.73-45.49-41-114.41-82.9-185.44a7.37,7.37,0,0,0-.48-.87c-5.75-9.75-11.82-19.56-18.05-29.17a6.08,6.08,0,0,0-4.6-2.75,4.35,4.35,0,0,0-.51,0,6.1,6.1,0,0,0-4.49,2c-3,3.28-7.1,7.77-11.38,12.71l0,0c-.8.94-1.73,2-2.71,3.11l-.11.13c-3.11,3.63-6.36,7.53-9.68,11.58-23.35,28.59-39.63,54-48.49,75.61a217,217,0,0,0-16-30.69,398.66,398.66,0,0,0-26.78-37.76l0,0c-.75-.93-1.49-1.86-2.23-2.8s-1.48-1.87-2.24-2.81l-.18-.22a4.21,4.21,0,0,0-.35-.48c-4.27-5.26-8.51-10.31-12.62-15l-.06-.07c-.78-.86-1.52-1.71-2.25-2.54l-1.77-2q-2-2.19-3.76-4.22l0,0c-2.39-2.65-4.7-5.17-6.87-7.51a6.08,6.08,0,0,0-4.46-1.94Z" transform="translate(-1.64 0)" fill="#343434"/><path id="Arm" d="M804.8,1146.53s-132,267.25-138.06,275.75c-2.57,3.61-18.56,30.62-36.33,60.35a608.37,608.37,0,0,1-84.68-48.08C617.4,1264.19,804.8,1146.53,804.8,1146.53Z" transform="translate(-1.64 0)" fill="#4e4d4d" stroke="#343434" stroke-linecap="round" stroke-linejoin="round" stroke-width="6.08"/><path id="Arm-2" data-name="Arm" d="M1186.83,1463.86a598.1,598.1,0,0,1-76,35.44c-9.34-29.15-20-71.78-28.63-87.25-3.15-5.61-10.39-21-19.88-41.58,0,0,0-.1,0-.16s0-.15-.1-.26c-23.81-51.75-61.3-136.43-82.8-185.14a.2.2,0,0,0,0-.16s-.05,0-.05-.1c-10-22.6-16.52-37.39-16.52-37.39S1156.89,1260.62,1186.83,1463.86Z" transform="translate(-1.64 0)" fill="#4e4d4d" stroke="#343434" stroke-linecap="round" stroke-linejoin="round" stroke-width="6.08"/><path id="Krage" d="M987.59,1148.44,890.2,1269.19s-1-.91-2.68-2.61c-1.76,1.64-2.74,2.61-2.74,2.61l-97.39-120.75s14-36.68,42.52-38.56c0,0,10.22,50.71,40.52,53.44l17.65,65.43,15-66.07c30.29-2.74,42-52.8,42-52.8C973.6,1111.76,987.59,1148.44,987.59,1148.44Z" transform="translate(-1.64 0)" fill="#4e4d4d" stroke="#343434" stroke-linecap="round" stroke-linejoin="round" stroke-width="6.08"/><g opacity="0.08" style="mix-blend-mode:multiply"><path d="M766.1,1358.62s-3.77,45.36-4.4,51.54c-4.09,38-36.55,60.72-43.83,106a1.84,1.84,0,0,1-.74-.21c-3.67-1-7.34-2.09-11-3.25s-7.39-2.3-11.06-3.56a.18.18,0,0,1-.16-.06c-2.67-.89-5.29-1.78-8-2.72-3.41-1.16-6.76-2.36-10.07-3.57-4-1.47-8.07-3-12.11-4.61-.73-.26-1.47-.58-2.2-.84-.42-.21-.89-.37-1.31-.53v0c5.09-40.27,11.8-79.07,11.8-79.07l40.95-80c32.3-58.88,63.13-134.39,84.42-173.82,2.2-4.14,4.35-7.92,6.34-11.22,2.05,2.2,4.35,4.72,6.82,7.45q1.8,2,3.77,4.24c1.31,1.47,2.62,3,4,4.56,3.93,4.57,8.13,9.55,12.48,14.84a4.29,4.29,0,0,0,.47.63c1.52,1.89,3,3.78,4.51,5.67C773.44,1248.3,756.51,1311.59,766.1,1358.62Z" transform="translate(-1.64 0)" fill="#1e1e1c"/></g><g opacity="0.08" style="mix-blend-mode:multiply"><path d="M1020.62,1525.62c.47-63.44-22-73.25-29.26-109.69-1.52-7.5-.42-60.51,3.09-72.67,8.76-30.67-18.77-90.4-56.84-160.34q5-6.06,9.6-11.49c.94-1.1,1.89-2.2,2.83-3.25,4.09-4.72,7.92-8.91,11.27-12.58,82.64,127,114,259.34,114,259.34,6.29,7.65,8.65,51.59,9.43,92.7v0c-1.36.47-2.72.94-4.09,1.36a.17.17,0,0,1-.15.06c-3.67,1.26-7.34,2.41-11.07,3.56s-7.29,2.26-11,3.25c-1.78.58-3.56,1.1-5.4,1.58a.18.18,0,0,1-.15,0c-4,1.15-8,2.2-12,3.25C1034.2,1522.53,1027.43,1524.16,1020.62,1525.62Z" transform="translate(-1.64 0)" fill="#1e1e1c"/></g><g id="knappar"><path d="M889.25,1347.49c0,6.32-5.77,11.13-12.08,11.13-6.67,0-10.21-3.51-11.44-9.53-1.26-6.19,5.12-11.43,11.44-11.43S889.25,1341.18,889.25,1347.49Z" transform="translate(-1.64 0)" fill="#1e1e1c" opacity="0.5" style="mix-blend-mode:multiply"/><path d="M893.13,1400.57c0,6.32-5.12,9.6-11.43,9.6a10.45,10.45,0,0,1-10.85-10.84c0-6.31,4.53-10.19,10.85-10.19A11.43,11.43,0,0,1,893.13,1400.57Z" transform="translate(-1.64 0)" fill="#1e1e1c" opacity="0.5" style="mix-blend-mode:multiply"/><path d="M894.24,1455.72c-.55,6-5.12,9.32-11.44,9.32s-11-3.27-11.43-9.32c-.47-6.29,5.12-11.43,11.43-11.43S894.81,1449.44,894.24,1455.72Z" transform="translate(-1.64 0)" fill="#1e1e1c" opacity="0.5" style="mix-blend-mode:multiply"/><path d="M890.51,1520.48c0,6.31-5.12,9.82-11.43,9.82s-11.44-3.51-11.44-9.82a11.44,11.44,0,0,1,22.87,0Z" transform="translate(-1.64 0)" fill="#1e1e1c" opacity="0.5" style="mix-blend-mode:multiply"/><circle cx="875.88" cy="1345.5" r="10.56" fill="#a56a54" stroke="#783d3d" stroke-miterlimit="10" stroke-width="3.04"/><rect x="872.15" y="1343.28" height="3.99" fill="none" stroke="#783d3d" stroke-linecap="round" stroke-linejoin="round" stroke-width="4.56"/><rect x="880.06" y="1343.28" height="3.99" fill="none" stroke="#783d3d" stroke-linecap="round" stroke-linejoin="round" stroke-width="4.56"/><circle cx="881.16" cy="1397.02" r="10.56" fill="#a56a54" stroke="#783d3d" stroke-miterlimit="10" stroke-width="3.04"/><rect x="877.44" y="1394.8" height="3.99" fill="none" stroke="#783d3d" stroke-linecap="round" stroke-linejoin="round" stroke-width="4.56"/><rect x="885.34" y="1394.8" height="3.99" fill="none" stroke="#783d3d" stroke-linecap="round" stroke-linejoin="round" stroke-width="4.56"/><circle cx="881.16" cy="1452.19" r="10.56" fill="#a56a54" stroke="#783d3d" stroke-miterlimit="10" stroke-width="3.04"/><rect x="877.44" y="1449.97" height="3.99" fill="none" stroke="#783d3d" stroke-linecap="round" stroke-linejoin="round" stroke-width="4.56"/><rect x="885.34" y="1449.97" height="3.99" fill="none" stroke="#783d3d" stroke-linecap="round" stroke-linejoin="round" stroke-width="4.56"/><circle cx="877.44" cy="1517.49" r="10.56" fill="#a56a54" stroke="#783d3d" stroke-miterlimit="10" stroke-width="3.04"/><rect x="873.71" y="1515.27" height="3.99" fill="none" stroke="#783d3d" stroke-linecap="round" stroke-linejoin="round" stroke-width="4.56"/><rect x="881.62" y="1515.27" height="3.99" fill="none" stroke="#783d3d" stroke-linecap="round" stroke-linejoin="round" stroke-width="4.56"/></g></g><g id="Fräknar"><ellipse cx="892.36" cy="826.49" rx="47.25" ry="40.64" fill="url(#radial-gradient)"/><circle cx="879.55" cy="790.05" r="2.35" fill="#cd9177"/><circle cx="901.99" cy="774.81" r="1.55" fill="#cd9177"/><circle cx="898.75" cy="788.8" r="1.7" fill="#cd9177"/><circle cx="890.62" cy="804.5" r="1.8" fill="#cd9177"/><circle cx="911.46" cy="815.97" r="2.87" fill="#cd9177"/><circle cx="922.93" cy="800.01" r="1.37" fill="#cd9177"/><circle cx="915.92" cy="770.44" r="1.59" fill="#cd9177"/><circle cx="916.88" cy="788.8" r="1.7" fill="#cd9177"/><circle cx="850.76" cy="824.07" r="2.12" fill="#cd9177"/><circle cx="863.78" cy="814.54" r="1.43" fill="#cd9177"/><circle cx="862.44" cy="791.83" r="1.34" fill="#cd9177"/><circle cx="875.44" cy="760.5" r="0.87" fill="#cd9177"/><circle cx="896.26" cy="756.76" r="1.62" fill="#cd9177"/><circle cx="886.86" cy="769.93" r="1.07" fill="#cd9177"/><circle cx="889.27" cy="835.26" r="1.34" fill="#cd9177"/><circle cx="919.97" cy="833.83" r="1.4" fill="#cd9177"/><circle cx="945.79" cy="825.13" r="1.06" fill="#cd9177"/><circle cx="882.03" cy="818.96" r="2.99" fill="#cd9177"/><circle cx="868.2" cy="841.45" r="2.98" fill="#cd9177"/><circle cx="919.78" cy="848.12" r="2.27" fill="#cd9177"/></g><path d="M625.63,557s108.15-153.4,272.66-136.33L887.8,363S590.37,357.17,625.63,557Z" transform="translate(-1.64 0)" fill="#bc9063"/><path d="M1152.78,538.07s-87.36-131.83-251.87-114.76L887.8,363S1188,338.22,1152.78,538.07Z" transform="translate(-1.64 0)" fill="#bc9063"/><path d="M547.46,820.65a92.62,92.62,0,0,1-.11-18.14l.47.21A128.14,128.14,0,0,0,547.46,820.65Z" transform="translate(-1.64 0)" fill="#c69c6c"/><path d="M930,227.08A51,51,0,0,0,962,213.9" transform="translate(-1.64 0)" fill="none" stroke="#a67d52" stroke-miterlimit="10" stroke-width="1.31"/><g id="Knut_right" data-name="Knut right"><path d="M924.87,344.12s-19,27.86,35.62,18.71,84.59-57.31,70.54-67.59c0,0,29.12-11.17,5.83,26.33-9.06,14.59-58.26,72.82-103,49.19S924.87,344.12,924.87,344.12Z" transform="translate(-1.64 0)" fill="#c69c6c" stroke="#a67d52" stroke-miterlimit="10" stroke-width="1.31"/><path d="M1035.55,294s14.8,11.31-11.42,37.53" transform="translate(-1.64 0)" fill="none" stroke="#a67d52" stroke-miterlimit="10" stroke-width="1.31"/><path d="M947.86,213.9s-5.27-33.31-38.74,10.82-22.25,99.72-5,97.57c0,0-13.52,28.1-22.31-15.17-3.41-16.82-7.55-92.94,41.25-106.48S947.86,213.9,947.86,213.9Z" transform="translate(-1.64 0)" fill="#bc9063" stroke="#a67d52" stroke-miterlimit="10" stroke-width="1.31"/><path d="M880.67,300.85s27.25,19.87,19.81-35-54.62-86.35-65.34-72.63c0,0-10.26-29.45,26.5-5,14.3,9.51,71,60.51,45.94,104.55S880.67,300.85,880.67,300.85Z" transform="translate(-1.64 0)" fill="#bc9063" stroke="#a67d52" stroke-miterlimit="10" stroke-width="1.31"/><path d="M833.82,185.84s21.12-14.4,63.77,49.93" transform="translate(-1.64 0)" fill="none" stroke="#a67d52" stroke-miterlimit="10" stroke-width="1.31"/><path d="M897.59,224.34s36.42-43.82,55.26-18.12" transform="translate(-1.64 0)" fill="none" stroke="#a67d52" stroke-miterlimit="10" stroke-width="1.31"/><path d="M1024.13,326.31c10.2,40.73-68.47,41.95-120.6,41.95s-73.4-15.69-73.4-57.68,32.64-69.14,83.89-78.65C963.08,222.82,983,161.89,1024.13,326.31Z" transform="translate(-1.64 0)" fill="#c69c6c" stroke="#a67d52" stroke-miterlimit="10" stroke-width="2.53"/><path d="M853,258.9s86.23,31.68,141.77-21.24" transform="translate(-1.64 0)" fill="none" stroke="#a67d52" stroke-miterlimit="10" stroke-width="1.31"/><path d="M864.25,250.37s86.47,28.75,123.18-23.69" transform="translate(-1.64 0)" fill="none" stroke="#a67d52" stroke-miterlimit="10" stroke-width="1.31"/><path d="M877.9,243s67.58,20.44,104.28-21.51" transform="translate(-1.64 0)" fill="none" stroke="#a67d52" stroke-miterlimit="10" stroke-width="1.31"/><path d="M898.29,235.57s48.29,9.73,76.58-20.55" transform="translate(-1.64 0)" fill="none" stroke="#a67d52" stroke-miterlimit="10" stroke-width="1.31"/><path d="M905,268.31s18.54,61.61,89.81,91.26" transform="translate(-1.64 0)" fill="none" stroke="#a67d52" stroke-miterlimit="10" stroke-width="1.31"/><path d="M915.39,268.24s19.6,52.83,87.77,89.53" transform="translate(-1.64 0)" fill="none" stroke="#a67d52" stroke-miterlimit="10" stroke-width="1.31"/><path d="M925.84,267.61s30.26,58.65,87.87,84.89" transform="translate(-1.64 0)" fill="none" stroke="#a67d52" stroke-miterlimit="10" stroke-width="1.31"/><path d="M937.45,266s34.69,65.36,84.28,78.56" transform="translate(-1.64 0)" fill="none" stroke="#a67d52" stroke-miterlimit="10" stroke-width="1.31"/><path d="M949.91,263.11S978,327,1024.67,337.16" transform="translate(-1.64 0)" fill="none" stroke="#a67d52" stroke-miterlimit="10" stroke-width="1.31"/><path d="M960.1,259.67s16.84,50.91,64,66.64" transform="translate(-1.64 0)" fill="none" stroke="#a67d52" stroke-miterlimit="10" stroke-width="1.31"/><path d="M969.77,255.34s12.86,52.14,52,61.55" transform="translate(-1.64 0)" fill="none" stroke="#a67d52" stroke-miterlimit="10" stroke-width="1.31"/><path d="M984.1,246.59s-3,39.18,8,51.58" transform="translate(-1.64 0)" fill="none" stroke="#a67d52" stroke-miterlimit="10" stroke-width="1.31"/><path d="M990.36,241.65s.4,56.41,9.22,62.67" transform="translate(-1.64 0)" fill="none" stroke="#a67d52" stroke-miterlimit="10" stroke-width="1.31"/><path d="M998.2,244.63s-.22,59.65,7.61,65.42" transform="translate(-1.64 0)" fill="none" stroke="#a67d52" stroke-miterlimit="10" stroke-width="1.31"/><path d="M1007.22,267.61s-1.76,42.58,5,45.4" transform="translate(-1.64 0)" fill="none" stroke="#a67d52" stroke-miterlimit="10" stroke-width="1.31"/><path d="M1013.71,286.12s-2.11,29.64,4.16,29.67" transform="translate(-1.64 0)" fill="none" stroke="#a67d52" stroke-miterlimit="10" stroke-width="1.31"/><path d="M830.13,317.91s53.68,29,105.49.35" transform="translate(-1.64 0)" fill="none" stroke="#a67d52" stroke-miterlimit="10" stroke-width="1.31"/><path d="M830.73,321.94s58.46,32.34,107.58,0" transform="translate(-1.64 0)" fill="none" stroke="#a67d52" stroke-miterlimit="10" stroke-width="1.31"/><path d="M831.6,327.73s60.88,30,111-1.42" transform="translate(-1.64 0)" fill="none" stroke="#a67d52" stroke-miterlimit="10" stroke-width="1.31"/><path d="M833,333.49s63.71,31.33,114.31-3.66" transform="translate(-1.64 0)" fill="none" stroke="#a67d52" stroke-miterlimit="10" stroke-width="1.31"/><path d="M842.48,350.76s78.65,32.41,119.66-9.13" transform="translate(-1.64 0)" fill="none" stroke="#a67d52" stroke-miterlimit="10" stroke-width="1.31"/><path d="M859.72,362s79,17,111.2-14.63" transform="translate(-1.64 0)" fill="none" stroke="#a67d52" stroke-miterlimit="10" stroke-width="1.31"/><path d="M974.87,349.75S957.73,364.9,949,366.58" transform="translate(-1.64 0)" fill="none" stroke="#a67d52" stroke-miterlimit="10" stroke-width="1.31"/><path d="M980.68,353s-9.74,10.51-14.61,12.91" transform="translate(-1.64 0)" fill="none" stroke="#a67d52" stroke-miterlimit="10" stroke-width="1.31"/><path d="M987.29,356.24s-2.87,8.4-6.61,7.58" transform="translate(-1.64 0)" fill="none" stroke="#a67d52" stroke-miterlimit="10" stroke-width="1.31"/><path d="M909.06,278.5s-19.44,37.72-43.94,50.63" transform="translate(-1.64 0)" fill="none" stroke="#a67d52" stroke-miterlimit="10" stroke-width="1.31"/><path d="M830.73,307.24c11.08-3.34,31.95-45.41,31.95-45.41" transform="translate(-1.64 0)" fill="none" stroke="#a67d52" stroke-miterlimit="10" stroke-width="1.31"/><path d="M883.4,266.16s2.86,40-38.32,57.92" transform="translate(-1.64 0)" fill="none" stroke="#a67d52" stroke-miterlimit="10" stroke-width="1.31"/><path d="M921.32,300.13s-7.35,27.22-17.81,29.32" transform="translate(-1.64 0)" fill="none" stroke="#a67d52" stroke-miterlimit="10" stroke-width="1.31"/><path d="M836.18,341.63S907.8,369.92,952.85,335" transform="translate(-1.64 0)" fill="none" stroke="#a67d52" stroke-miterlimit="10" stroke-width="1.31"/></g><g id="Hårslinga_vänster" data-name="Hårslinga vänster"><path d="M857.46,400.71s-50.66-7.44-113.72,28.55-51.28,106.64-65,126.37-11.58,70.06-73,92.09-93.53,103.55-98.43,125.71,13.41,68.29,13.41,68.29S450,800.83,481.44,727.43s95.22-82,115.77-98.7,63.43-65,68.21-90.66,2.65-81.31,6.34-87.55,9.1-53.37,98.15-66.51" transform="translate(-1.64 0)" fill="#c69c6c" stroke="#a67d52" stroke-miterlimit="10" stroke-width="2.62"/><path d="M775.78,393.92s-41.93-3-64.58,17.14-36.48,29.39-42.67,90.3" transform="translate(-1.64 0)" fill="none" stroke="#a67d52" stroke-miterlimit="10" stroke-width="1.31"/><path d="M872.07,394.47s-54.67-11.29-79.77,2.22-61.8,24-67,29.24-42,41.41-39.33,52.16-2.62,52.71-7.86,63.2-21.13,50.08-23.67,56.5-23.52,37.88-44.5,43.12-68.16,31.46-68.16,36.7S510.28,740.53,505,751s-7.33,58.91,6.82,84.51" transform="translate(-1.64 0)" fill="none" stroke="#a67d52" stroke-miterlimit="10" stroke-width="1.31"/><path d="M762,405s-10.49-5.24-26.22,5.24-47.89,32.51-47.54,39.85-8.85,17.91-9.49,36.22,9.84,28.8-.64,44.53S642.23,598,636.55,603.73s4.81,11-21.4,21.45-26.22,15.73-41.95,21S540.5,670.37,528,684.48s-20.43,38.94-26.95,47.5-14.59,30.52-15.79,53.62,7.09,30.6,7.09,30.6" transform="translate(-1.64 0)" fill="none" stroke="#a67d52" stroke-miterlimit="10" stroke-width="1.31"/><path d="M474.53,777.56s4.29-37,14.78-52.76,31.46-52.43,36.7-52.43,19.78-17,19.78-17" transform="translate(-1.64 0)" fill="none" stroke="#a67d52" stroke-miterlimit="10" stroke-width="1.31"/></g><g id="Hårslinga_höger" data-name="Hårslinga höger"><path d="M911.4,402.34s47.19-31.46,99.62,31.46c19,22.78,0,21,31.46,52.43s69.1,64.06,113.2,84.46,51.71,73.69,53.15,110,64.36,78.23,64.36,78.23-46.24-50.51-49.34-85.56,7.39-77-18.82-98-93.21-37.17-99-52.67-53-109.88-79.24-115.12-83.89-89.14-120.6-36.7" transform="translate(-1.64 0)" fill="#c69c6c" stroke="#a67d52" stroke-miterlimit="10" stroke-width="2.62"/><path d="M909.06,375.87s15.45-14.81,31.18-11.21,30.34,1.42,51.87,23.48,16.74,26.18,29.62,29.37S1055.94,434,1055.94,434" transform="translate(-1.64 0)" fill="none" stroke="#a67d52" stroke-miterlimit="10" stroke-width="1.31"/><path d="M912.41,380.81s37.55-13.09,53.66-2.33,24.69,8.13,33.51,25.17,13.49,22.64,29.5,30.32,22,5.39,26.86,11.79,10.14,22.12,15.38,22.12,12.33,10.05,12.33,10.05" transform="translate(-1.64 0)" fill="none" stroke="#a67d52" stroke-miterlimit="10" stroke-width="1.31"/><path d="M912.41,390.05s37.55-12.74,53.66-1.54,22.28,6,29.68,19.07,18.34,22.94,26,28.51,31.25,30.92,43,41.84,27.52,31.9,32.77,37.14,4.89,19.78,15.55,23S1143.75,553,1160,560.24s21.46,7.26,26.7,12.51,6.57,6.49,13.78,13.73,19.3,30.59,18.49,45.13-2,16.26-1.4,31.13-4.65,14.87.59,25.36,31.44,52.51,31.44,52.51" transform="translate(-1.64 0)" fill="none" stroke="#a67d52" stroke-miterlimit="10" stroke-width="1.31"/><path d="M1015.94,440.38s18.68,22.26,23.92,27.5,15.73,15.73,21,26.22,15.25,21.26,15.49,23.74,13.35,8.95,13.35,8.95,49.81,35.47,55.06,35.47,10.48-5.24,21,5.24,15.73,10.49,21,15.73,10.49,15.73,15.73,26.22,16.48,20.47,16.11,28.59S1208,666.41,1208,666.41l15.43,37.42,1.77,12" transform="translate(-1.64 0)" fill="none" stroke="#a67d52" stroke-miterlimit="10" stroke-width="1.31"/></g><path d="M910,412s34.28-11.37,49.32,0,36,19.28,43.89,28.43,53.08,2.06,41,31.82-12.42,41.77-4.41,54.12c0,0-13-3.39-13-8.63s5.1-22.66,5.17-29.68,15.51-28,7.79-28-9-1.87-24.09-3.55-36-22.31-36-22.49-26.3-32.6-73.46-11.15" transform="translate(-1.64 0)" fill="#c69c6c" stroke="#a67d52" stroke-miterlimit="10" stroke-width="2.62"/><path d="M888.06,1228.74l-.62,35.13-.11,7.19c30.73,96,22.7,207.32,14.37,268.88v0" transform="translate(-1.64 0)" fill="none" stroke="#343434" stroke-linecap="round" stroke-linejoin="round" stroke-width="6.01"/><g id="Hårstrån_höger" data-name="Hårstrån höger"><path d="M898.29,407.58s20.65-8.84,29.29-8.55,34.69,6.49,40.52,7.86,18.93,8,19.19,8.76,15.87,14.78,15.87,14.78" transform="translate(-1.64 0)" fill="none" stroke="#c69c6c" stroke-linecap="round" stroke-linejoin="round" stroke-width="2.62"/><polyline points="892.88 386.88 912.23 384.01 931.08 380.27" fill="none" stroke="#c69c6c" stroke-linecap="round" stroke-linejoin="round" stroke-width="2.62"/><polyline points="892.88 380.27 904.51 374.24 911.98 368.23" fill="none" stroke="#c69c6c" stroke-linecap="round" stroke-linejoin="round" stroke-width="2.62"/><polyline points="894.76 396.6 909.64 393.76 915.24 392.32" fill="none" stroke="#c69c6c" stroke-linecap="round" stroke-linejoin="round" stroke-width="2.62"/><path d="M980.68,369.36s7.56-2.74,11.43-2.15,11.39-9.46,23.83,1,5.95,14.37,23.77,18.65a356.63,356.63,0,0,0,41.28,7.58c13.1,1.75,39.33,9.53,41.38,15s7.73,10.58,12.28,27.46,8.61,21.57,14.94,29.72,21.64,12,22.15,30.7,1,26.44,0,33.05-2.22,20.61-2.22,20.61l.53,5.33" transform="translate(-1.64 0)" fill="none" stroke="#c69c6c" stroke-linecap="round" stroke-linejoin="round" stroke-width="2.62"/><line x1="1170.7" y1="587.91" x2="1176.43" y2="623.68" fill="none" stroke="#c69c6c" stroke-linecap="round" stroke-linejoin="round" stroke-width="2.62"/><line x1="1164.29" y1="576.43" x2="1167.88" y2="617.85" fill="none" stroke="#c69c6c" stroke-linecap="round" stroke-linejoin="round" stroke-width="2.62"/><path d="M991.82,380.27s14.39,4.28,16.72,6.61,14.39,11,24.89,12.1,52.49,7.91,52.49,7.91,11.74-4,16.17,4.33,7.55,27,8.72,36.34,13.61,34.59,13.61,34.59,5.83,10.5,9.72,15.16,8.94,4.28,12.83,9.72,8.69,13.87,8.69,13.87a106.56,106.56,0,0,1,3.37,13c.77,5.06,0,13.61,0,13.61" transform="translate(-1.64 0)" fill="none" stroke="#c69c6c" stroke-linecap="round" stroke-linejoin="round" stroke-width="2.62"/><path d="M1045.89,417.6s26-.39,27.94,0,22.59,8.48,22.59,8.48l6,29.63s8.1,15.94,12.32,25.27,5.78,11.59,14,20.38,21,23.64,22,25,2.45,18.16,2.45,18.16" transform="translate(-1.64 0)" fill="none" stroke="#c69c6c" stroke-linecap="round" stroke-linejoin="round" stroke-width="2.62"/><path d="M1060.65,434c7-1.21,10.33-6.56,15.86,0s11.24,7,15,19.79,4.08,9.33,8,18.28a72.34,72.34,0,0,0,8.59,14.77" transform="translate(-1.64 0)" fill="none" stroke="#c69c6c" stroke-linecap="round" stroke-linejoin="round" stroke-width="2.62"/><path d="M1070,450.05s10,2.2,13.35,10a76.65,76.65,0,0,0,6.34,12" transform="translate(-1.64 0)" fill="none" stroke="#c69c6c" stroke-linecap="round" stroke-linejoin="round" stroke-width="2.62"/></g><g id="Hårstrån_vänster" data-name="Hårstrån vänster"><path d="M882.87,376.33s3.31.85-52.74-2.08-60-7.12-79.78-3.47-33.83,14.7-49.77,23-24.11,7.9-29.94,16.06-29.4,24.54-32.2,51.93-10.19,59.65-12.91,59.15-4.67,12.19-7.39,19.57-7,23.72-8.94,28-4.59,32.65,1.55,44.32" transform="translate(-1.64 0)" fill="none" stroke="#c69c6c" stroke-linecap="round" stroke-linejoin="bevel" stroke-width="2.62"/><path d="M883.44,388.05c-2.05,0-9.1-10.89-41-7.78s-39.38,7.08-63.23,1.59-20-10.63-30.89-5.53-28.46,20.27-38.9,22.6-23.71,12.8-31.64,19.06-21.57,36.16-21.57,36.16-7,14.12-10.89,23.78-1,8.49-9.63,37.27-9.19,27.22-13,38.11,2.74,7.19.82,24.79-3.41,24.59-3.41,24.59" transform="translate(-1.64 0)" fill="none" stroke="#c69c6c" stroke-linecap="round" stroke-linejoin="bevel" stroke-width="2.62"/><path d="M884.52,412.54s-29.4.78-46,0-14.42-4.27-37.1,4.67S769.13,428.49,757,435.87s-22.79,14.39-28.15,19.06a51.66,51.66,0,0,1-11.57,8.16c-4.28,2.34-12.37,4.83-12.37,4.83" transform="translate(-1.64 0)" fill="none" stroke="#c69c6c" stroke-linecap="round" stroke-linejoin="bevel" stroke-width="2.62"/><path d="M668.53,450.05s-11.11,35.4-11.89,38.41-7,22.07-7,22.07l-13.91,27.54s-5.15,20.31-5.15,24.19v27.6" transform="translate(-1.64 0)" fill="none" stroke="#c69c6c" stroke-linecap="round" stroke-linejoin="round" stroke-width="2.62"/><line x1="663.78" y1="494.98" x2="654.22" y2="517.53" fill="none" stroke="#c69c6c" stroke-linecap="round" stroke-linejoin="round" stroke-width="2.62"/><path d="M833.82,403.65S868.06,399.52,880,399s14,2.31,14,2.31" transform="translate(-1.64 0)" fill="none" stroke="#c69c6c" stroke-linecap="round" stroke-linejoin="bevel" stroke-width="2.62"/><path d="M887.09,393.76s-8.39-2.1-15-3.71-31.36-2-34.16-3.17-40.29-5.44-47,0-7.5,6.88-7.5,6.88" transform="translate(-1.64 0)" fill="none" stroke="#c69c6c" stroke-linecap="round" stroke-linejoin="bevel" stroke-width="2.62"/><path d="M870.75,369.36s-8.29,5.94-34.57,1.42-25.11-7.52-34.77-7.79-10.54-.63-23.37.44-30.32-1.07-34.3.66a79,79,0,0,1-10.84,3.51" transform="translate(-1.64 0)" fill="none" stroke="#c69c6c" stroke-linecap="round" stroke-linejoin="bevel" stroke-width="2.62"/><path d="M824.51,360.06a166.59,166.59,0,0,0,23.89.71s-1.82.63,3.32,1.94" transform="translate(-1.64 0)" fill="none" stroke="#c69c6c" stroke-linecap="round" stroke-linejoin="bevel" stroke-width="2.62"/></g></g></g></g></svg>