<?xml version="1.0" encoding="utf-8"?>
<!-- Generator: Adobe Illustrator 25.0.1, SVG Export Plug-In . SVG Version: 6.00 Build 0)  -->
<svg version="1.1" id="Layer_1" xmlns="http://www.w3.org/2000/svg" xmlns:xlink="http://www.w3.org/1999/xlink" x="0px" y="0px"
	 viewBox="0 0 400 100" style="enable-background:new 0 0 400 100;" xml:space="preserve">
<style type="text/css">
	.st0{fill:none;}
	.st1{fill:#EEEDED;}
	.st2{fill:none;stroke:#C1348B;stroke-width:2.312;stroke-miterlimit:10;}
	.st3{fill:#C1348B;}
	.st4{fill:none;stroke:#12100E;stroke-width:2.312;stroke-miterlimit:10;}
	.st5{fill:none;stroke:#D61053;stroke-width:1.864;stroke-miterlimit:10;}
	.st6{fill:#D61053;}
	.st7{fill:none;stroke:#12100E;stroke-width:1.864;stroke-miterlimit:10;}
	.st8{fill:none;stroke:#941E81;stroke-width:1.4;stroke-miterlimit:10;}
	.st9{fill:#941E81;}
	.st10{fill:none;stroke:#12100E;stroke-width:1.4;stroke-miterlimit:10;}
	.st11{fill:none;stroke:#652682;stroke-width:1.056;stroke-miterlimit:10;}
	.st12{fill:#652682;}
	.st13{fill:none;stroke:#12100E;stroke-width:1.056;stroke-miterlimit:10;}
	.st14{fill:#12100E;}
	.st15{fill:#FFFFFF;}
	.st16{fill:#020203;}
	.st17{fill:#BF2926;}
</style>
<circle class="st0" cx="50" cy="50" r="40"/>
<circle class="st0" cx="150" cy="50" r="40"/>
<g>
	<circle class="st1" cx="50" cy="50" r="40"/>
	
		<ellipse transform="matrix(0.7071 -0.7071 0.7071 0.7071 -21.0173 44.4641)" class="st2" cx="43.16" cy="47.6" rx="28.7" ry="16.49"/>
	<path class="st3" d="M24.54,44.03l1.23-5.15L36.19,27.6l12.84-6.46l9.33-0.34l5.6,3.1l2.75,5.6l-1.47-0.72l-6.59-4.26l-4.69,0.06
		l-5.82,0.86c0,0-7.36,4.36-7.56,4.4c-0.2,0.04-6.73,3.2-6.73,3.2s-4.91,5.74-4.91,5.82C28.94,38.94,24.54,44.03,24.54,44.03z"/>
	<path class="st3" d="M19.98,59.11l0.8,6.79c0,0,3.2,3.56,3.3,3.59c0.1,0.03,7.59,1.17,7.59,1.17l9.32-1.34l7.39-4l8.26-7.97
		l5.9-8.16l-1.21-1.94l-5.23,7.95l-6.99,4.96l-7.02,4.1l-6.66,2.33l-7.12,0.94l-4.66-2.92L19.98,59.11z"/>
	
		<ellipse transform="matrix(0.7071 -0.7071 0.7071 0.7071 -18.2218 43.3041)" class="st4" cx="43.16" cy="43.65" rx="28.7" ry="16.49"/>
	
		<ellipse transform="matrix(0.7071 -0.7071 0.7071 0.7071 -18.7079 51.904)" class="st5" cx="53.3" cy="48.53" rx="23.18" ry="13.32"/>
	<path class="st6" d="M38.25,45.65l1-4.16l8.39-9.09l10.4-5.22l7.54-0.26l4.52,2.51l2.22,4.54l-1.18-0.59l-5.33-3.45l-3.78,0.02
		l-4.7,0.7c0,0-5.94,3.52-6.1,3.54c-0.16,0.02-5.43,2.58-5.43,2.58s-4,4.62-4,4.7S38.25,45.65,38.25,45.65z"/>
	<path class="st6" d="M34.57,57.83l0.67,5.49c0,0,2.58,2.88,2.66,2.9s6.13,0.94,6.13,0.94l7.53-1.08l5.98-3.29l6.64-6.4l4.8-6.58
		L68,48.22l-4.22,6.4l-5.65,4L52.44,62l-5.38,1.88l-5.76,0.8l-3.74-2.4L34.57,57.83z"/>
	
		<ellipse transform="matrix(0.7071 -0.7071 0.7071 0.7071 -16.4561 50.9703)" class="st7" cx="53.3" cy="45.35" rx="23.18" ry="13.32"/>
	
		<ellipse transform="matrix(0.7071 -0.7071 0.7071 0.7071 -20.4167 60.2259)" class="st8" cx="62.49" cy="54.76" rx="17.34" ry="9.97"/>
	<path class="st9" d="M51.23,52.59l0.74-3.11l6.3-6.82l7.77-3.91l5.6-0.2l3.42,1.86l1.66,3.4l-0.89-0.45l-4-2.58H69l-3.52,0.53
		c0,0-4.45,2.63-4.57,2.66c-0.12,0.02-4.06,1.93-4.06,1.93s-2.98,3.46-2.98,3.52C53.87,49.46,51.23,52.59,51.23,52.59z"/>
	<path class="st9" d="M48.44,61.71l0.5,4.1c0,0,1.93,2.15,1.99,2.18l4.59,0.7l5.6-0.8l4.46-2.4l4.98-4.8l3.57-4.92l-0.73-1.18
		l-3.2,4.8l-4.22,2.99l-4.25,2.48l-4,1.41l-4.3,0.56l-2.8-1.77L48.44,61.71z"/>
	
		<ellipse transform="matrix(0.7071 -0.7071 0.7071 0.7071 -18.7239 59.5219)" class="st10" cx="62.49" cy="52.36" rx="17.34" ry="9.97"/>
	
		<ellipse transform="matrix(0.7071 -0.7071 0.7071 0.7071 -25.0966 68.0235)" class="st11" cx="69.56" cy="64.31" rx="13.1" ry="7.53"/>
	<path class="st12" d="M61.06,62.67l0.56-2.35l4.8-5.15l5.86-2.95l4.26-0.15l2.56,1.42l1.26,2.56l-0.72-0.34l-3.01-1.94h-2.14
		l-2.66,0.39c0,0-3.36,1.99-3.45,2.01c-0.09,0.02-3.07,1.46-3.07,1.46s-2.25,2.62-2.25,2.66C63.06,60.34,61.06,62.67,61.06,62.67z"
		/>
	<path class="st12" d="M58.98,69.56l0.38,3.1c0,0,1.46,1.6,1.5,1.6s3.46,0.53,3.46,0.53l4.26-0.61l3.38-1.78l3.76-3.62l2.69-3.72
		l-0.55-0.89l-2.4,3.63l-3.2,2.26l-3.2,1.87l-3.02,1.05l-3.26,0.42l-2.11-1.34L58.98,69.56z"/>
	
		<ellipse transform="matrix(0.7071 -0.7071 0.7071 0.7071 -23.8212 67.5012)" class="st13" cx="69.57" cy="62.51" rx="13.1" ry="7.53"/>
</g>
<circle class="st0" cx="250" cy="50" r="40"/>
<circle class="st0" cx="350" cy="50" r="40"/>
<g>
	<circle class="st1" cx="150" cy="50" r="40"/>
	<path class="st14" d="M125.58,69.27c0,3.7,1.85,5.55,5.55,5.55h3.7c3.7,0,5.54-1.85,5.54-5.55l0,0c0-3.7,1.86-3.7,5.55-3.7h1.86
		c3.7,0,5.55,1.85,5.55,5.55v3.67l0,0c0,3.7,1.85,5.55,5.54,5.55h9.26c3.7,0,5.55-1.85,5.55-5.55V61.87c0-3.7-1.85-5.55-5.55-5.55
		h-3.7c-3.7,0-5.55-1.85-5.55-5.54l0,0c0-3.7-1.85-5.55-5.54-5.55h-7.41c-3.7-0.02-5.55,1.84-5.55,5.58l0,0
		c0,3.7-1.85,5.54-5.54,5.54h-3.7c-3.7,0-5.55,1.85-5.55,5.55V69.27z"/>
	<path class="st14" d="M129.29,39.67h1.85c2.03,0.02,3.66,1.67,3.66,3.7v7.43c0,2.05-1.66,3.7-3.7,3.7h0h-1.81
		c-2.04,0-3.7-1.65-3.7-3.69c0-0.01,0-0.01,0-0.02v-7.43C125.59,41.33,127.25,39.67,129.29,39.67z"/>
	<path class="st14" d="M168.14,39.67h1.84c2.05,0,3.7,1.66,3.7,3.7v7.39c0,2.05-1.66,3.7-3.7,3.7h-1.84c-2.05,0-3.7-1.66-3.7-3.7
		v-7.39C164.44,41.33,166.1,39.67,168.14,39.67z"/>
	<path class="st14" d="M142.24,23.02h1.85c2.05,0,3.7,1.66,3.7,3.7l0,0v12.95c0,2.04-1.65,3.7-3.7,3.7h-1.86
		c-2.05,0-3.7-1.66-3.7-3.7l0,0V26.72C138.54,24.67,140.19,23.02,142.24,23.02z"/>
	<path class="st14" d="M155.19,26.72h1.84c2.05,0,3.7,1.66,3.7,3.7v9.25c0,2.05-1.66,3.7-3.7,3.7h-1.84c-2.05,0-3.7-1.66-3.7-3.7
		v-9.25C151.49,28.38,153.15,26.72,155.19,26.72z"/>
	<path class="st14" d="M128.78,37.82h2.96v-1.24c0-4.93-2.96-4.93-2.96,0V37.82z"/>
	<path class="st14" d="M141.58,21.2h3.06v-1.51c0-5.92-3.06-5.92-3.06,0V21.2z"/>
	<path class="st14" d="M154.84,24.87h2.8v-1.39c0-5.55-2.78-5.55-2.78,0L154.84,24.87z"/>
	<path class="st14" d="M167.64,37.82h2.96v-1.24c0-4.93-2.96-4.93-2.96,0V37.82z"/>
</g>
<g>
	<path class="st1" d="M289.82,50c0,10.97-4.41,20.92-11.55,28.14c-1.25,1.26-2.58,2.45-3.99,3.54c-2.99,2.32-6.33,4.22-9.92,5.61
		c-1.29,0.51-2.63,0.95-3.99,1.31c-0.01,0.01-0.03,0.01-0.04,0.01c-2.98,0.81-6.09,1.28-9.3,1.37C250.74,90,250.44,90,250.15,90
		h-0.24c-0.39,0-0.78-0.01-1.17-0.02h-0.03C227.22,89.35,210,71.69,210,50c0-22.09,17.87-40,39.91-40c3.07,0,6.06,0.35,8.93,1
		c0.01,0.01,0.02,0.01,0.02,0.01c5.71,1.31,10.94,3.85,15.42,7.31c1.41,1.09,2.74,2.28,3.99,3.54
		C285.41,29.08,289.82,39.03,289.82,50z"/>
	<path class="st15" d="M241.59,88.67c-0.74-5.5-1.53-11-2.3-16.52c-1.25-8.9-2.48-17.78-3.71-26.66
		c-0.79-5.72-1.59-11.49-2.39-17.18c-0.58-4.13-1.08-8.27-1.77-12.37c-0.08-0.37-0.08-0.75,0-1.11c-1.41,0.75-2.77,1.58-4.07,2.51
		c3.25,23.54,6.48,47.04,9.7,70.45c1.53,0.53,3.1,0.97,4.68,1.31C241.67,88.96,241.62,88.82,241.59,88.67z M225.38,80.72V19.67
		c-0.01-0.32,0.03-0.64,0.11-0.95c-1.64,1.3-3.17,2.73-4.58,4.26v54.17c1.4,1.52,2.91,2.93,4.52,4.21
		C225.38,81.15,225.36,80.94,225.38,80.72z M264.36,87.31v-0.18c0,0,0-0.08,0-0.13c-0.02-0.05-0.04-0.11-0.04-0.16V12.98
		c0,0,0,0,0-0.05v-0.09c-0.01-0.03-0.01-0.07,0-0.1c-1.31-0.5-2.64-0.93-3.99-1.29v76.82c0,0,0,0.06,0,0.09v0.27
		c0,0,0,0.03-0.02,0.06c0,0.02-0.01,0.03-0.02,0.04c1.41-0.36,2.8-0.81,4.16-1.33L264.36,87.31z M274.28,18.29v63.58
		c1.4-1.06,2.74-2.23,3.99-3.46v-56.7C277.02,20.48,275.68,19.34,274.28,18.29z M258.84,11l-0.01,0.11l-0.1,0.73v-0.52
		c0,0,0-0.05,0-0.08v-0.15c-1.4-0.33-2.82-0.57-4.25-0.73c0.03,0.2,0.03,0.41,0,0.61c-0.5,3.65-0.95,7.31-1.42,10.95
		c-0.93,7.41-1.87,14.81-2.81,22.23c-0.81,6.32-1.63,12.66-2.45,18.98c-0.83,6.32-1.63,12.66-2.4,18.99
		c-0.28,2.18-0.52,4.4-0.8,6.58c-0.04,0.3-0.12,0.59-0.24,0.87c1.45,0.2,2.9,0.33,4.35,0.39V89.8c0,0,0,0,0-0.06v-0.47
		c0.58-4.46,1.12-8.93,1.7-13.4c0.85-6.71,1.71-13.41,2.57-20.11l3.2-24.35c0.42-3.24,0.84-6.47,1.28-9.71
		c0.42-3.24,0.84-6.48,1.27-9.72c0.04-0.3,0.08-0.58,0.12-0.85c0-0.04,0-0.07,0.01-0.11C258.86,11.01,258.85,11.01,258.84,11z"/>
	<path class="st16" d="M254.48,10.97c-0.49,3.65-0.94,7.3-1.41,10.95c-0.93,7.41-1.87,14.82-2.82,22.23
		c-0.81,6.33-1.63,12.66-2.46,18.98c-0.82,6.33-1.62,12.66-2.39,18.99c-0.28,2.19-0.52,4.4-0.8,6.59c-0.04,0.3-0.12,0.59-0.24,0.86
		c-0.91-0.13-1.8-0.29-2.69-0.49c-0.06-0.14-0.09-0.28-0.11-0.43c-0.74-5.5-1.53-11.01-2.31-16.51c-1.22-8.9-2.45-17.79-3.67-26.66
		c-0.8-5.73-1.6-11.49-2.39-17.18c-0.57-4.13-1.08-8.26-1.77-12.37c-0.08-0.37-0.08-0.75,0-1.11c5.76-3.09,12.2-4.7,18.73-4.7
		c1.45,0,2.89,0.08,4.33,0.23C254.51,10.57,254.51,10.77,254.48,10.97z"/>
	<path class="st16" d="M274.3,81.31c0,0.11,0,0.22,0,0.32c0,0.04,0,0.08,0,0.12s0,0.08,0,0.12c-3.01,2.3-6.34,4.15-9.87,5.5v-0.06
		v-0.07l0,0l0,0v-0.11c0,0,0-0.09,0-0.13l0,0c-0.06-0.05-0.1-0.12-0.11-0.2v-0.17c0-2.93,0-5.86,0-8.8V13.52c0-0.06,0-0.1,0-0.15
		c0-0.05,0-0.2,0-0.29c0-0.03,0-0.07,0-0.1c0,0,0,0,0-0.05c0-0.05,0-0.06,0-0.09c0-0.03,0-0.07,0-0.1c3.56,1.36,6.91,3.23,9.94,5.54
		l0,0c0,0.08,0,0.16,0,0.24v0.08c0,0.03,0,0.05,0,0.08C274.26,39.56,274.28,60.44,274.3,81.31z"/>
	<path class="st16" d="M258.73,11.09c0.03,0.01,0.07,0.01,0.1,0.02l-0.1,0.73v-0.52c0,0,0-0.05,0-0.08V11.09z"/>
	<path class="st16" d="M258.86,11.01c-0.01,0.04-0.01,0.07-0.01,0.11c-0.01-0.01-0.01-0.01-0.02-0.01l0.01-0.11
		C258.85,11.01,258.86,11.01,258.86,11.01z"/>
	<path class="st16" d="M260.38,87.6c0.01,0.07,0.01,0.15,0,0.22v0.39c0,0,0,0.06,0,0.09c0.01,0.05,0.01,0.11,0,0.17v0.1
		c0,0,0,0.01-0.01,0.03c0,0.02-0.01,0.05-0.03,0.07c-0.01,0-0.02,0.01-0.03,0.01c-3.03,0.8-6.15,1.23-9.28,1.3
		C250.74,90,250.44,90,250.15,90h-1.4c-0.01-0.01-0.01-0.01-0.01-0.02v-0.01c0-0.01,0-0.01,0.01-0.02c-0.01-0.04-0.01-0.08,0-0.12
		c0,0,0,0,0-0.07v-0.08c-0.01-0.06-0.01-0.12,0-0.18v-0.2c0.57-4.46,1.11-8.94,1.69-13.41c0.85-6.71,1.71-13.4,2.58-20.11
		l3.19-24.34c0.41-3.25,0.83-6.49,1.25-9.74c0.42-3.24,0.84-6.48,1.27-9.72c0.04-0.3,0.08-0.58,0.12-0.85
		c0.47,0.1,0.94,0.21,1.41,0.34l0.07,0.14v38.52C260.33,62.62,260.35,75.11,260.38,87.6z"/>
	<path class="st16" d="M290,50.07c0.01,10.65-4.23,20.85-11.78,28.34V21.72C285.77,29.21,290.01,39.42,290,50.07z"/>
	<path class="st16" d="M237.03,87.79c-4.21-1.47-8.14-3.63-11.63-6.4c-0.03-0.21-0.03-0.43,0-0.64c0.01-0.15,0.01-0.3,0-0.45
		c0-20.21,0-40.41,0-60.61c-0.01-0.32,0.03-0.64,0.11-0.94c0.61-0.48,1.23-0.94,1.87-1.39C230.59,40.89,233.81,64.37,237.03,87.79z"
		/>
	<path class="st16" d="M220.88,22.98v54.17C206.78,61.86,206.78,38.27,220.88,22.98z"/>
</g>
<g>
	<circle class="st1" cx="349.48" cy="50.17" r="40"/>
	<path class="st17" d="M351.3,47.51c-0.56,0.41-0.99,0.96-1.24,1.6c-0.08,0.23-0.25,0.18-0.42,0.17c-0.53-0.07-1.08-0.04-1.6,0.1
		c-0.47,0.09-0.8,0.5-0.8,0.98c0,0.48,0,0.96,0,1.44c0,0.22,0.09,0.3,0.3,0.3c0.96,0,1.92,0,2.89,0c0.26,0,0.3-0.11,0.3-0.34
		c0-0.48,0-0.96,0.06-1.44c0.07-0.98,0.69-1.83,1.6-2.19c1.54-0.55,3.18-0.73,4.8-0.54c-0.39,0.46-0.65,1.01-0.76,1.6
		c0,0.21-0.22,0.14-0.34,0.12c-0.38-0.06-0.77-0.04-1.15,0.05c-0.49,0.06-0.86,0.47-0.86,0.96c0,0.5,0,1.02,0,1.53
		c0,0.33,0.22,0.28,0.42,0.28c1.95,0,3.9,0,5.86,0c0.43,0,0.58,0.1,0.58,0.56c0,2.62,0,5.24,0,7.86c0,0.42-0.12,0.55-0.54,0.54
		c-0.8,0-1.6,0-2.4,0c-0.34,0-0.45-0.09-0.45-0.44c0-2.06,0-4.13,0-6.19c0-0.42-0.11-0.55-0.54-0.54c-0.8,0-1.68,0-2.51,0
		c-0.39,0-0.46,0.13-0.46,0.48c0,2.06,0,4.12,0,6.18c0,0.42-0.12,0.53-0.52,0.51c-0.8,0-1.6,0-2.4,0c-0.32,0-0.42-0.09-0.42-0.42
		c0-2.06,0-4.13,0-6.19c0-0.4-0.07-0.57-0.52-0.54c-0.82,0.04-1.65,0.04-2.47,0c-0.46,0-0.52,0.16-0.52,0.55c0,2.02,0,4,0,6.06
		c0,0.46-0.14,0.57-0.58,0.55c-0.8,0-1.55,0-2.33,0c-0.36,0-0.47-0.08-0.47-0.46c0-2.05,0-4.1,0-6.14c0-0.4-0.06-0.58-0.52-0.55
		c-0.8,0.04-0.8,0-0.8-0.76v-0.1c0-0.91,0-0.92,0.91-0.93c0.3,0,0.4-0.1,0.39-0.4c-0.03-0.56,0.01-1.12,0.1-1.67
		c0.23-1.06,1.06-1.89,2.13-2.1C347.76,47.56,349.53,47.4,351.3,47.51z"/>
	<path class="st17" d="M329.22,50.68c-1.55-0.7-3.28-0.89-4.94-0.56c-1.6,0.32-2.78,1.68-2.86,3.3c-0.14,1.38,0.11,2.77,0.74,4
		c0.65,1.25,2.04,1.95,3.43,1.72c0.3,0,0.28-0.22,0.28-0.42c0-1.38,0-2.76,0-4.14c0-0.37,0.1-0.48,0.46-0.46c0.85,0,1.7,0,2.56,0
		c0.25,0,0.35,0.07,0.34,0.34c0,1.94,0,3.87,0,5.82c0.03,0.18-0.09,0.36-0.27,0.39c-0.01,0-0.01,0-0.02,0
		c-2.17,0.65-4.47,0.69-6.66,0.13c-3.39-1.04-4.92-3.86-4.55-7.2c0.37-3.34,2.75-5.23,5.95-5.76c1.74-0.25,3.51-0.16,5.21,0.29
		c0.19,0.05,0.35,0.07,0.34,0.34C329.21,49.18,329.22,49.91,329.22,50.68z"/>
	<path class="st17" d="M374.08,52.57c1.18-0.86,2.73-1.01,4.06-0.42c0.98,0.35,1.62,1.28,1.6,2.32c0,2.08,0,4.16,0,6.24
		c0,0.26-0.11,0.3-0.34,0.3c-0.87,0-1.74,0-2.61,0c-0.34,0-0.42-0.1-0.41-0.42c0-1.53,0-3.06,0-4.6c0.01-0.42-0.02-0.84-0.1-1.26
		c-0.04-0.54-0.51-0.94-1.04-0.9c-0.02,0-0.04,0-0.06,0.01c-0.54-0.06-1.03,0.33-1.09,0.88c0,0.01,0,0.02,0,0.03
		c-0.05,0.35-0.07,0.71-0.06,1.06c0,1.6,0,3.2,0,4.74c0,0.34-0.07,0.47-0.44,0.46c-0.8,0-1.67,0-2.51,0c-0.29,0-0.41-0.05-0.41-0.38
		c0-4.08,0-8.16,0-12.23c0-0.32,0.1-0.4,0.4-0.39c0.8,0,1.67,0,2.51,0c0.34,0,0.46,0.09,0.45,0.44
		C374.07,49.8,374.08,51.15,374.08,52.57z"/>
	<path class="st17" d="M351.84,45.11l3.68-1.5c2.18-0.88,4.36-1.77,6.54-2.64c0.24-0.06,0.4-0.3,0.36-0.54c0-3.4,0-6.79,0-10.19
		c0-0.41,0.1-0.54,0.52-0.52c0.73,0,1.46,0,2.18,0c0.3,0,0.41,0.06,0.41,0.38c0,4.91,0,9.81,0,14.7c0,0.25,0,0.39-0.34,0.39h-13.32
		L351.84,45.11z"/>
	<path class="st17" d="M346.27,45.21h-0.41c-4.24,0-8.47,0-12.7,0c-0.43,0-0.54-0.12-0.54-0.54c0-4.8,0-9.6,0-14.4
		c0-0.44,0.13-0.55,0.54-0.54c0.68,0,1.37,0,2.05,0c0.38,0,0.5,0.11,0.5,0.5c0,3.37,0,6.73,0,10.1c-0.05,0.32,0.16,0.63,0.48,0.7
		c3.27,1.31,6.54,2.65,9.82,4l0.29,0.14L346.27,45.21z"/>
	<path class="st17" d="M351.28,43.77c1.83-2.78,3.64-5.54,5.46-8.29c0.13-0.2,0.19-0.43,0.18-0.66c0-2.76,0-5.52,0-8.28
		c-0.03-0.34,0.15-0.66,0.46-0.8c0.95-0.58,1.83-1.17,2.84-1.84v0.67c0,4.42,0,8.84,0,13.26c0.02,0.29-0.13,0.57-0.38,0.7
		c-2.67,1.7-5.33,3.4-8,5.12C351.69,43.72,351.54,43.87,351.28,43.77z"/>
	<path class="st17" d="M341.23,30.66c0,1.35,0,2.7,0,4.05c-0.01,0.34,0.1,0.67,0.3,0.95c1.6,2.4,3.18,4.8,4.75,7.2
		c0.15,0.23,0.27,0.49,0.42,0.72c0.06,0.09,0.09,0.15,0,0.23c-0.09,0.08-0.14,0-0.19-0.05l-8.34-5.35c-0.17-0.1-0.27-0.3-0.26-0.5
		c0-4.53,0-9.06,0-13.6c0-0.32,0.04-0.44,0.37-0.22c0.89,0.59,1.79,1.18,2.7,1.74c0.19,0.11,0.29,0.32,0.26,0.54
		c0,1.43,0,2.86,0,4.28V30.66z"/>
	<path class="st17" d="M354.04,19.35v0.69c0,3.91,0,7.82,0,11.73c0.02,1.08-0.18,2.15-0.59,3.15c-1.12,2.67-2.16,5.38-3.24,8.06
		c0,0.11-0.06,0.25-0.2,0.32c-0.09-0.1-0.05-0.22-0.05-0.34c0-4.47,0-8.94,0-13.41c0.06-0.56,0.24-1.11,0.51-1.6
		c1.11-2.83,2.25-5.65,3.38-8.46c0.03-0.07,0.06-0.14,0.1-0.2L354.04,19.35z"/>
	<path class="st17" d="M348.06,43.33l-1.32-3.3l-2.54-6.34c-0.08-0.19-0.11-0.39-0.11-0.59c0-4.53,0-9.06,0-13.6
		c0-0.06,0-0.12,0-0.33c0.14,0.34,0.25,0.54,0.34,0.8l3.53,8.84c0.11,0.25,0.17,0.52,0.18,0.8c0,4.48,0,8.96,0,13.45
		c0,0.09,0,0.17,0,0.26L348.06,43.33z"/>
	<path class="st17" d="M366.68,56c0,0.58,0,1.18,0,1.77c-0.08,0.74,0.45,1.41,1.19,1.5c0.12,0.01,0.24,0.01,0.36-0.01
		c0.34,0.01,0.69-0.01,1.02-0.06c0.32-0.06,0.37,0.07,0.36,0.34c-0.01,0.26,0,0.66,0,0.98c0,0.7,0.12,0.63-0.61,0.66
		c-1.24,0.11-2.49-0.03-3.67-0.41c-1.21-0.36-2.02-1.48-1.99-2.74c0-1.24,0-2.48,0-3.72c0-0.35-0.1-0.45-0.44-0.44
		c-0.86,0-0.86,0-0.87-0.88c-0.01-0.88,0-0.93,0.89-0.91c0.38,0,0.42-0.14,0.42-0.46c0-1.07,0-2.14,0-3.2c0-0.31,0.1-0.4,0.39-0.39
		c0.87,0,1.74,0,2.61,0c0.3,0,0.37,0.1,0.36,0.38c0,1.09,0,2.18,0,3.26c0,0.36,0.11,0.45,0.45,0.44c0.68,0,1.37,0,2.05,0
		c0.33,0,0.5,0.07,0.46,0.44c-0.05,0.37,0.19,1.02-0.1,1.3s-0.8,0.06-1.26,0.07c-0.37,0.02-0.74,0.02-1.11,0
		c-0.35,0-0.5,0.06-0.47,0.45c0,0.56,0,1.12,0,1.68L366.68,56z"/>
	<path class="st17" d="M334.09,53.63c0.26-0.38,0.43-0.8,0.7-1.11c0.43-0.55,1.13-0.82,1.82-0.7c0.23,0,0.3,0.14,0.3,0.37
		c0,0.58,0,1.15,0,1.72c0,0.19,0,0.32-0.27,0.29c-1.6-0.18-2.48,0.61-2.53,2.31c0,1.33,0,2.66,0,4c0,0.42-0.11,0.52-0.52,0.5
		c-0.8-0.04-1.65,0-2.46,0c-0.28,0-0.38-0.07-0.38-0.36c0-2.75,0-5.49,0-8.23c0-0.26,0.08-0.35,0.34-0.35c0.89,0,1.77,0,2.65,0
		c0.3,0,0.38,0.11,0.36,0.38C334.08,52.85,334.09,53.24,334.09,53.63z"/>
	<path class="st17" d="M337.93,56.57c0-1.34,0-2.67,0-4c0-0.38,0.11-0.47,0.47-0.46c0.81,0,1.61,0,2.4,0c0.33,0,0.46,0.08,0.46,0.44
		c0,2.71,0,5.43,0,8.14c0,0.27-0.06,0.38-0.35,0.37c-0.87,0-1.74,0-2.61,0c-0.32,0-0.39-0.1-0.39-0.39
		C337.94,59.26,337.93,57.9,337.93,56.57z"/>
	<path class="st17" d="M327.06,64.33v1.04c0,1.6,0,3.2,0,4.8c0,0.33-0.06,0.46-0.43,0.46c-0.37,0-0.42-0.14-0.42-0.46
		c0-2.31,0-4.62,0-6.93c0-0.18-0.14-0.48,0.14-0.5c0.29-0.02,0.69-0.16,0.97,0.23c0.85,1.2,1.74,2.4,2.61,3.55
		c0.66,0.88,1.3,1.76,2.05,2.62v-0.48c0-1.85,0-3.7,0-5.54c0-0.38,0.13-0.42,0.46-0.43c0.33-0.01,0.39,0.16,0.39,0.45
		c0,2.3,0,4.62,0,6.93c0,0.18,0.13,0.49-0.14,0.51c-0.26,0.02-0.71,0.2-0.99-0.16l-0.8-1.11c-1.23-1.67-2.47-3.34-3.7-5
		L327.06,64.33z"/>
	<path class="st17" d="M355.53,66.89c0.58,0.49,1.02,1.13,1.26,1.86c0.26,0.51,0.49,1.04,0.74,1.55c0.1,0.22,0.12,0.31-0.18,0.34
		c-0.36,0.07-0.71-0.15-0.8-0.5c-0.29-0.7-0.66-1.36-0.97-2.06c-0.21-0.57-0.77-0.94-1.38-0.93c-0.57,0-1.14,0-1.72,0
		c-0.29,0-0.36,0.1-0.36,0.38c0,0.91,0,1.82,0,2.74c0,0.32-0.11,0.39-0.4,0.38c-0.29-0.02-0.47,0-0.47-0.37c0-2.4,0-4.8,0-7.2
		c0-0.21,0-0.35,0.3-0.34c1.16,0,2.32-0.06,3.48,0.06c1.01,0.02,1.85,0.77,1.98,1.77c0.19,0.95-0.38,1.9-1.3,2.18L355.53,66.89z
		 M352.13,64.9c0,0.38,0,0.8,0,1.16c0,0.26,0.06,0.36,0.34,0.34c0.7,0,1.39,0,2.09-0.05c0.34-0.01,0.67-0.11,0.96-0.3
		c0.5-0.28,0.77-0.86,0.66-1.42c-0.09-0.59-0.56-1.05-1.15-1.11c-0.88-0.08-1.76-0.1-2.64-0.07c-0.22,0-0.25,0.1-0.25,0.29
		C352.14,64.12,352.13,64.51,352.13,64.9z"/>
	<path class="st17" d="M344.4,66.65c0-1.17,0-2.33,0-3.49c0-0.34,0.07-0.46,0.43-0.46c1.52,0,3.04,0,4.56,0
		c0.3,0,0.44,0.05,0.45,0.4c0.01,0.35-0.18,0.38-0.46,0.38c-1.22,0-2.45,0-3.67,0c-0.35,0-0.46,0.1-0.45,0.45
		c0.03,0.57,0.03,1.15,0,1.72c0,0.37,0.13,0.44,0.46,0.43c1.06,0,2.11,0,3.2,0c0.26,0,0.51-0.08,0.52,0.37s-0.26,0.4-0.54,0.4
		c-1.04,0-2.08,0-3.12,0c-0.34,0-0.5,0.06-0.48,0.46c0,0.71,0,1.42,0,2.14c0,0.33,0.1,0.42,0.42,0.42c1.32,0,2.63,0,3.95,0
		c0.3,0,0.45,0,0.45,0.39s-0.14,0.4-0.44,0.4c-1.6,0-3.2,0-4.8,0c-0.35,0-0.45-0.09-0.44-0.44C344.41,69.01,344.4,67.83,344.4,66.65
		z"/>
	<path class="st17" d="M324.48,65.71c0,0.86,0,1.74,0,2.6c0.01,1.01-0.64,1.91-1.6,2.22c-0.98,0.35-2.05,0.32-3.01-0.08
		c-0.84-0.32-1.4-1.11-1.43-2c-0.14-1.79,0-3.59-0.07-5.39c0-0.36,0.2-0.34,0.45-0.34c0.25,0,0.43,0,0.43,0.35c0,1.42,0,2.86,0,4.28
		v0.38c0,0.76,0,1.6,0.85,1.96c0.9,0.46,1.98,0.44,2.86-0.06c0.52-0.35,0.8-0.97,0.71-1.6c0-1.6,0-3.2,0-4.8
		c0-0.45,0.15-0.51,0.53-0.5c0.38,0.01,0.34,0.1,0.34,0.35c0,0.89,0,1.77,0,2.66L324.48,65.71z"/>
	<path class="st17" d="M361.12,62.6c0.77-0.04,1.52,0.19,2.13,0.66c0.11,0.09,0.39,0.18,0.17,0.37s-0.28,0.52-0.62,0.24
		c-0.59-0.44-1.34-0.63-2.07-0.51c-0.39,0.03-0.76,0.19-1.03,0.47c-0.42,0.41-0.42,1.08-0.01,1.49c0.04,0.04,0.08,0.07,0.12,0.11
		c0.47,0.33,1,0.57,1.55,0.72c0.41,0.15,0.8,0.33,1.18,0.54c0.77,0.39,1.2,1.24,1.06,2.1c-0.06,0.85-0.65,1.57-1.47,1.79
		c-1.19,0.4-2.49,0.22-3.52-0.49c-0.12-0.09-0.42-0.15-0.19-0.4s0.24-0.54,0.64-0.28c0.69,0.47,1.53,0.66,2.35,0.54
		c0.68-0.03,1.24-0.54,1.34-1.21c0.1-0.62-0.25-1.23-0.85-1.45c-0.66-0.32-1.35-0.55-2-0.86c-1.08-0.52-1.48-1.22-1.3-2.15
		c0.25-0.96,1.12-1.64,2.11-1.66C360.81,62.59,360.97,62.6,361.12,62.6z"/>
	<path class="st17" d="M340,69.6c0.47-1.26,0.9-2.4,1.34-3.54l1.13-3c0.2-0.3,0.57-0.44,0.91-0.33c0.18,0.11,0,0.26,0,0.36
		c-0.42,1.14-0.86,2.26-1.3,3.38c-0.49,1.27-0.99,2.54-1.47,3.81c-0.06,0.25-0.31,0.4-0.56,0.34c-0.28,0-0.54,0.06-0.7-0.34
		c-0.89-2.4-1.82-4.8-2.74-7.2c-0.14-0.34,0-0.36,0.29-0.38c0.34-0.1,0.69,0.1,0.78,0.43c0.01,0.03,0.01,0.06,0.02,0.09
		c0.71,2.01,1.46,4,2.2,6.02L340,69.6z"/>
	<path class="st17" d="M373.04,62.75c0.52-0.2,1.1,0.04,1.34,0.54c0.62,1.09,1.35,2.1,2.08,3.2l1.51-2.4
		c0.17-0.26,0.33-0.53,0.5-0.8c0.45-0.69,0.45-0.69,1.3-0.62c0.05,0.18-0.1,0.29-0.18,0.41c-0.8,1.3-1.66,2.61-2.51,3.9
		c-0.16,0.23-0.24,0.52-0.23,0.8c0,0.8,0,1.6,0,2.4c0,0.38-0.19,0.37-0.46,0.38s-0.42,0-0.42-0.37c0-0.8,0-1.52,0-2.28
		c0.01-0.37-0.09-0.74-0.3-1.04c-0.8-1.26-1.65-2.52-2.46-3.78C373.16,63.03,373.04,62.97,373.04,62.75z"/>
	<path class="st17" d="M370.26,67.07c0,1.06,0,2.11,0,3.2c0,0.38-0.17,0.39-0.45,0.4s-0.41-0.06-0.41-0.38c0-2.09,0-4.18,0-6.28
		c0-0.37-0.07-0.52-0.48-0.49c-0.54,0-1.08,0-1.6,0c-0.34,0-0.31-0.2-0.32-0.42s0-0.37,0.31-0.37c1.6,0,3.26,0,4.89,0
		c0.32,0,0.34,0.16,0.34,0.4s-0.06,0.4-0.36,0.38c-0.51,0-1.02,0-1.54,0c-0.3,0-0.4,0.08-0.39,0.38
		C370.27,64.94,370.26,66.01,370.26,67.07z"/>
	<path class="st17" d="M359.3,50.97c-0.25,0-0.5-0.04-0.74-0.14c-0.66-0.22-1.09-0.86-1.04-1.56c0.12-0.69,0.67-1.23,1.36-1.34
		c0.32-0.08,0.64-0.08,0.96,0c0.78,0.16,1.31,0.88,1.23,1.67C360.9,50.43,360.15,51.01,359.3,50.97z"/>
	<path class="st17" d="M339.61,50.97c-0.88,0.09-1.67-0.54-1.76-1.42c-0.02-0.17-0.01-0.34,0.03-0.5c0.35-0.89,1.31-1.37,2.23-1.1
		c0.84,0.15,1.39,0.94,1.25,1.78c0,0,0,0,0,0.01C341.14,50.5,340.41,51.02,339.61,50.97z"/>
	<path class="st17" d="M335.4,66.71c0,1.16,0,2.32,0,3.48c0,0.35-0.1,0.44-0.45,0.45s-0.43-0.12-0.43-0.46c0-2.35,0-4.71,0-7.06
		c0-0.33,0.11-0.41,0.42-0.41c0.31,0,0.46,0.05,0.46,0.42C335.4,64.32,335.4,65.53,335.4,66.71z"/>
	<path class="st17" d="M365.93,66.66c0,1.19,0,2.4,0,3.58c0,0.37-0.16,0.4-0.45,0.39s-0.46,0-0.45-0.38c0-2.4,0-4.74,0-7.12
		c0-0.38,0.18-0.41,0.48-0.42c0.3-0.01,0.42,0.09,0.42,0.42C365.92,64.3,365.93,65.47,365.93,66.66z"/>
</g>
</svg>
